<?xml version="1.0" encoding="UTF-8"?>
<svg id="Lager_1" data-name="Lager 1" xmlns="http://www.w3.org/2000/svg" viewBox="0 0 1080 1081.55">
  <defs>
    <style>
      .cls-1 {
        opacity: .67;
        stroke: #682910;
      }

      .cls-1, .cls-2 {
        fill: none;
        stroke-miterlimit: 10;
      }

      .cls-3 {
        fill: #f3f4f5;
      }

      .cls-4 {
        fill: #f6f5f7;
      }

      .cls-5 {
        fill: #f6f7f6;
      }

      .cls-6 {
        fill: #f6f7f7;
      }

      .cls-7 {
        fill: #f7f6f8;
      }

      .cls-8 {
        fill: #f7f9f7;
      }

      .cls-9 {
        fill: #f7f9f9;
      }

      .cls-10 {
        fill: #f3d0e5;
      }

      .cls-11 {
        fill: #f8fafa;
      }

      .cls-12 {
        fill: #f8faf9;
      }

      .cls-13 {
        fill: #f9fbfa;
      }

      .cls-14 {
        fill: #f1bd51;
      }

      .cls-15 {
        fill: #f0f0f2;
      }

      .cls-16 {
        fill: #e9e9e9;
      }

      .cls-17 {
        fill: #e9ebec;
      }

      .cls-18 {
        fill: #e9e8e8;
      }

      .cls-19 {
        fill: #f4f5f6;
      }

      .cls-20 {
        fill: #f4f3f4;
      }

      .cls-21 {
        fill: #f5f5f5;
      }

      .cls-22 {
        fill: #f5f8f8;
      }

      .cls-23 {
        fill: #f5f6f6;
      }

      .cls-24 {
        fill: #fcfdfd;
      }

      .cls-25 {
        fill: #edecee;
      }

      .cls-26 {
        fill: #fff;
      }

      .cls-27 {
        fill: #f1f2f2;
      }

      .cls-28 {
        fill: #fefefe;
      }

      .cls-29 {
        fill: #fbfdfc;
      }

      .cls-30 {
        fill: #fbfcfb;
      }

      .cls-31 {
        fill: #e5e5e4;
      }

      .cls-32 {
        fill: #fcfeff;
      }

      .cls-33 {
        fill: #e4e4e3;
      }

      .cls-34 {
        fill: #efeef0;
      }

      .cls-35 {
        fill: #fdfeff;
      }

      .cls-36 {
        fill: #7f7e80;
      }

      .cls-37 {
        fill: #808385;
      }

      .cls-38 {
        fill: #818283;
      }

      .cls-39 {
        fill: #747474;
      }

      .cls-40 {
        fill: #69242c;
      }

      .cls-41 {
        fill: #969798;
      }

      .cls-42 {
        fill: #999a9b;
      }

      .cls-43 {
        fill: #99999b;
      }

      .cls-44 {
        fill: #98999b;
      }

      .cls-45 {
        fill: #989898;
      }

      .cls-46 {
        fill: #934c37;
      }

      .cls-47 {
        fill: #929395;
      }

      .cls-48 {
        fill: #848484;
      }

      .cls-49 {
        fill: #848586;
      }

      .cls-50 {
        fill: #848587;
      }

      .cls-51 {
        fill: #939495;
      }

      .cls-52 {
        fill: #939596;
      }

      .cls-53 {
        fill: #b8baba;
      }

      .cls-54 {
        fill: #9d9c9e;
      }

      .cls-55 {
        fill: #9d9fa0;
      }

      .cls-56 {
        fill: #919394;
      }

      .cls-57 {
        fill: #737274;
      }

      .cls-58 {
        fill: #303032;
      }

      .cls-59 {
        fill: #8d8e8f;
      }

      .cls-60 {
        fill: #8d8d8f;
      }

      .cls-61 {
        fill: #a9aaab;
      }

      .cls-62 {
        fill: #a9a9ab;
      }

      .cls-63 {
        fill: #a4a5a6;
      }

      .cls-64 {
        fill: #a5b4c8;
      }

      .cls-65 {
        fill: #a6aaaa;
      }

      .cls-66 {
        fill: #b0b1b3;
      }

      .cls-67 {
        fill: #abacad;
      }

      .cls-68 {
        fill: #d6d8d9;
      }

      .cls-69 {
        fill: #e0e0e0;
      }

      .cls-70 {
        fill: #acaeae;
      }

      .cls-71 {
        fill: #dfe0e0;
      }

      .cls-72 {
        fill: #a8a8a9;
      }

      .cls-73 {
        fill: #a8a6a9;
      }

      .cls-74 {
        fill: #a8a9ab;
      }

      .cls-75 {
        fill: #a8aaab;
      }

      .cls-76 {
        fill: #434342;
      }

      .cls-77 {
        fill: #404040;
      }

      .cls-78 {
        fill: #414142;
      }

      .cls-79 {
        fill: #444;
      }

      .cls-80 {
        fill: #3e4041;
      }

      .cls-81 {
        fill: #a3a4a6;
      }

      .cls-82 {
        fill: #6e6c6e;
      }

      .cls-83 {
        fill: #707070;
      }

      .cls-84 {
        fill: #949495;
      }

      .cls-85 {
        fill: #949697;
      }

      .cls-86 {
        fill: #727274;
      }

      .cls-87 {
        fill: #727173;
      }

      .cls-88 {
        fill: #464648;
      }

      .cls-89 {
        fill: #9b9d9e;
      }

      .cls-90 {
        fill: #89898b;
      }

      .cls-91 {
        fill: #6d6d6f;
      }

      .cls-92 {
        fill: #87888a;
      }

      .cls-93 {
        fill: #878688;
      }

      .cls-94 {
        fill: #6d6e70;
      }

      .cls-95 {
        fill: #808182;
      }

      .cls-96 {
        fill: #555557;
      }

      .cls-97 {
        fill: #636363;
      }

      .cls-98 {
        fill: #29221c;
      }

      .cls-99 {
        fill: #4a4a4a;
      }

      .cls-100 {
        fill: #484848;
      }

      .cls-101 {
        fill: #5c5c5c;
      }

      .cls-102 {
        fill: #5c5c5e;
      }

      .cls-103 {
        fill: #5c5b5d;
      }

      .cls-104 {
        fill: #383737;
      }

      .cls-105 {
        fill: #343635;
      }

      .cls-106 {
        fill: #838385;
      }

      .cls-107 {
        fill: #838386;
      }

      .cls-108 {
        fill: #606062;
      }

      .cls-109 {
        fill: #5f5e60;
      }

      .cls-110 {
        fill: #777778;
      }

      .cls-111 {
        fill: #5e5d5f;
      }

      .cls-112 {
        fill: #532d22;
      }

      .cls-113 {
        fill: #828183;
      }

      .cls-114 {
        fill: #757577;
      }

      .cls-115 {
        fill: #757575;
      }

      .cls-2 {
        stroke: #1e1e1c;
        stroke-width: .5px;
      }
    </style>
  </defs>
  <rect class="cls-10" width="1080" height="1080"/>
  <path class="cls-98" d="M369.34,250.4c-14.75,0-27.66,4.94-35.2,17.94-2.39,4.11-8.07,11.02-8.07,16.04-4.28,13.36-.9,23.79,6.39,35.17,4.65,7.26,6.17,13.63,4.06,22.01-1.66,6.59-2.93,13.37-2.3,20.19,.23,2.49,.75,5.05,2.2,7.09,4.93,6.94,15.1,6.56,18.16,15.82,1.58,4.76-.63,9.74,.41,14.52,9.84-1.61,19.9-5.66,29.52-8.45,10.5-3.04,21-6.09,31.5-9.13,20.48-5.94,40.95-11.87,61.43-17.81,5.65-1.64,28.02-4.81,30.8-10.15,.86-1.66,.89-3.62,.89-5.49,.02-7.76,0-15.69-2.53-23.03-5.87-16.98-20.24-13.42-32.34-22.29-13.72-10.05-7.16-23.84-8.48-37.89-1.58-16.87-19-13.77-30.3-19.47-5.99-3.03-9.23-8.03-16.05-9.79s-13.79-1.13-20.6-.19c-12.21,1.68-21.43,5.34-29.49,14.91Z"/>
  <path class="cls-46" d="M518.85,467.7s23.34,23.77,23.34,23.77c10.96-7.99,27.61-23.2,42.12-18.28,5.15,1.75,9.37,5.48,14.17,8.04,4.73,2.53,10.01,3.9,15.32,4.64,2.94,.41,5.99,.63,8.82-.25,7.75-2.41,10.45-14.84,10.01-21.85-.56-9.07-5.67-17.23-11.45-24.25-6.77-8.24-13.34-16.48-19.89-24.86,.45,.57-6.42,10.74-6.99,11.7-3.66,6.16-7.33,12.32-10.99,18.48-.47,.79-.97,1.61-1.77,2.08-.7,.41-1.53,.48-2.34,.55-15.51,1.26-31.3,1.55-46.17,6.13-7.15,2.2-12.96,6.29-14.19,14.1Z"/>
  <path class="cls-46" d="M321.51,431.81c-9.71-3.88-19.39-7.84-29.04-11.85-7.66-3.18-15.3-6.39-22.9-9.72-8.03-3.51-16.87-6.74-23.41-12.74-2.42-2.22-4.57-5.05-4.85-8.33-.27-3.07,1.12-6.02,2.48-8.8,12.97-26.48,25.13-53.35,37.56-80.09,0,0,13.53-25.07,13.53-25.07,0,0,16.25,3.61,16.25,3.61-8.32,24.7-16.51,49.48-23.96,74.46-2.27,7.62-5.96,16.36-6.08,24.38-.03,2.06,.6,4.23,2.14,5.6,1.4,1.25,3.33,1.68,5.15,2.13,8.19,2.01,15.74,5.55,23.41,8.93,1.35,.6,16.35,6.37,16.01,8.01,0,0-6.29,29.47-6.29,29.47Z"/>
  <path class="cls-64" d="M427.56,1079.83H161.34s141.66-536.55,174.15-557.31l29.78-68.59s53.25-37,104.69-34.3c0,0,10.83-2.71,21.66,11.73,30.7,40.93,68.72,77.49,100.51,117.94,45.31,57.64,90.26,115.57,134.84,173.78,44.57,58.19,88.77,116.66,132.61,175.41,21.92,29.37,43.74,58.82,65.48,88.33,20.4,27.7,52.95,59.77,64.93,91.57-23.76,6.13-55.36,1.43-80.31,1.43h-134.12c-59.94,0-119.88-.06-179.82-.11-48.13-146.49-90.06-296.3-152.85-437.15,2.95,6.61-2.76,37.85-2.7,46.17,.28,35.6-4.55,71.8-6.39,107.46-2.76,53.3-4.22,106.67-4.38,160.04-.07,24.15,13.95,103.85-1.87,123.59Z"/>
  <path class="cls-112" d="M396.49,351.71s14.36,11.51,13.46,19.63l37-18.05s-9.93-4.51-13.54-20.76l-36.93,19.18Z"/>
  <ellipse class="cls-46" cx="398.56" cy="303.75" rx="38.95" ry="52.35" transform="translate(-86.52 178.03) rotate(-22.78)"/>
  <path class="cls-98" d="M377.41,269.15s-4.34,23.75-22.55,39.74c0,0-7.4-33.62,11.28-48.22,0,0,44.3-25.86,61.71,4.54,17.42,30.4-50.44,3.95-50.44,3.95Z"/>
  <path class="cls-14" d="M393.2,386.12c.57-.36,2.4-4.74,2.81-5.31,4.08-5.73,10.17-10.06,16.09-13.69,20.93-12.82,43.95-18.7,68.39-19.04,2.46-.03,4.91-.02,7.37,.02,2.4,.05,4.81,.12,7.18-.26,9.47-1.52,17.56-5.73,27.44-5.61,16.81,.21,27.06,12.9,38.75,23.32,17.06,15.21,35.9,24.93,56,35.24,8.74,4.49,18.75,13.99,13,24.53-2.15,3.94-5.7,6.88-9.24,9.64-1.63,1.27-3.48,2.59-5.54,2.46-1.93-.12-3.55-1.47-4.89-2.87-3.57-3.73-6.29-8.27-7.9-13.18-4.04,8.21-8.41,16.25-13.1,24.11-.85,1.43-1.78,2.91-3.26,3.68-5.46,2.83-14.72,2.59-20.81,3.48-7.82,1.15-15.67,2.16-23.55,2.83-8.05,.68-21.08,2.76-18.57,14.03-5.31-6.02-10.62-12.03-15.94-18.05-7.08-8.02-14.85-21.11-25.72-23.5-10.88-2.39-22.19-3.2-33.2-1.5-9.73,1.5-19.05,4.92-28.29,8.32-8.35,3.07-16.7,6.14-24.91,9.57-6.77,2.82-16.19,5.41-21.45,10.72s-6.39,14.22-12.04,19.74c-.92,.89-1.94,1.71-2.59,2.81-.56,.94-.82,2.04-1.07,3.11-1.59,6.85-3.18,13.71-4.76,20.56-3.23-2.91-6.68-6.24-7.13-10.57-.38-3.66,1.49-7.12,2.48-10.66,.93-3.34,1.09-6.88,2.37-10.1,1.72-4.31,1.8-17.49,.84-18.3-.04-.04-7.14,10.93-7.87,11.8-2.59,3.04-5.97,5.55-9.88,6.36-6.51,1.35-13.06-2.2-18.13-6.5-3.93-3.34-7.43-7.43-9.58-12.14-2.35-5.14,.43-13.01-3.13-17.35-1.25-1.53-3.25-2.26-5.21-2.51s-3.95-.09-5.92-.18c-3.09-.14-6.24-.96-8.63-2.91-4.31-3.52-3.5-10.37-3.08-15.24,.65-7.46,1.68-14.85,3.28-22.17,.34-1.56,.77-3.22,1.97-4.28,1.3-1.15,3.19-1.29,4.92-1.29,6.76,0,13.52,1.37,19.75,4.01,11.8,5,25.62,13.09,38.4,6.72,4.62-2.31,9.74-5.11,14.69-1.83,.42,.28,.83,.59,1.33,.66,.68,.09,1.31-.32,1.88-.69,7.79-5.11,17.08-7.91,26.4-7.96,.02,0,.04,0,.07-.02Z"/>
  <path class="cls-46" d="M293.69,277.09s16.28,5.07,16.28,5.07c1.62-1.28,3.13-2.75,4.54-4.29,1.16-1.27,2.33-2.62,3.26-4.09,1.02-1.61,1.6-3.47,2.44-5.18,.69-1.41,1.56-2.72,2.58-3.89,.52-.6,1.08-1.16,1.68-1.68s1.31-.78,1.98-1.2c.93-.59,1.45-1.82,1.85-2.83,.25-.62,.41-1.41,0-1.89-.22-.27-.57-.38-.91-.39-.65-.03-1.29,.25-1.89,.55-2.03,1-3.96,2.23-5.75,3.68s-3.08,3.18-5.3,3.51c-.29,.04-.61,.06-.86-.09-.5-.29-.51-1.05-.41-1.66,.38-2.4,1.36-4.79,2.27-7.03,.63-1.54,1.32-3.06,2.17-4.48,.93-1.56,2.16-2.48,3.32-3.81,1.25-1.43,2.46-3.71,2.76-5.63,.06-.41,.07-.86-.13-1.2-.16-.26-.44-.43-.72-.52-.8-.25-1.72,0-2.42,.54-.82,.62-1.25,1.53-1.79,2.39-.34,.54-.85,1.1-1.1,1.69l1.3-3.02c.7-1.64,1.7-3.36,1.9-5.15,.07-.57,.02-1.2-.38-1.57-.23-.21-.55-.3-.87-.29-1.03,.04-1.84,.99-2.46,1.88-1.5,2.16-2.23,4.59-3.32,6.95,.57-1.23,.89-2.79,1.26-4.1,.33-1.15,.56-2.47,.04-3.55-.12-.25-.32-.51-.59-.49-.2,.01-.37,.18-.52,.33-1.21,1.3-2.21,2.81-2.96,4.45,.09-.89,.26-4.04-.99-4.17-.16-.02-.32,.04-.48,.1-3.13,1.25-5.44,4.44-7.2,7.34-2.83,4.64-4.3,9.91-5.71,15.13-.9,3.35-1.63,6.53-1.86,9.99-.11,1.64-.2,3.3-.59,4.91-.25,1.04-.88,2.67-.39,3.69Z"/>
  <path class="cls-40" d="M408.17,320.29c-1.89,0-4.46,.34-5.79,1.81s-1.89,3.84-2.68,5.55c-1.09,2.36-2.19,4.72-3.26,7.1-.12,.26,7.03,1.45,7.72,1.43,2.54-.04,5.3-.91,7.66-1.78,2.15-.79,6.45-3.51,9.42-5.88,1.89-1.5,3.24-2.86,3.16-3.48-.17-1.32-1.68-2.64-2.6-3.48-1.98-1.79-4.63-2.34-7.18-2.73-1.16-.18-2.34-.39-3.51-.21-.59,.09-1.18,.25-1.7,.56-.23,.14-1.09,1.1-1.23,1.1Z"/>
  <path class="cls-40" d="M424.41,321.91s-3.02-1.88-6.48-2.4l-3.46,3.99,3.13,3.86,3.65,1.16s4.98-2.79,3.16-6.61Z"/>
  <path class="cls-2" d="M370.23,312.74s13.54-3.61,16.25-9.93"/>
  <path class="cls-2" d="M405.43,294.69s12.64-2.49,17.6-6.66"/>
  <path class="cls-1" d="M394.35,290.66c.98,4.85,3.47,9.53,7.61,12.31,1,.67,2.08,1.24,2.99,2.04,4.49,3.95,2.32,9.64-1.66,12.57"/>
  <g>
    <polygon class="cls-93" points="536.41 125.8 525.07 137.15 521.04 169.02 536.41 156.99 536.41 125.8"/>
    <g>
      <ellipse class="cls-68" cx="684.91" cy="177.19" rx="164.09" ry="164.8"/>
      <rect class="cls-111" x="649.11" y="133.6" width="33.55" height="34.67"/>
      <polygon class="cls-79" points="685.26 97.45 685.26 130.72 719.28 130.06 719.28 97.45 685.26 97.45"/>
      <polygon class="cls-111" points="648.4 97.45 649.11 130.72 682.66 130.72 682.66 97.45 648.4 97.45"/>
      <polygon class="cls-5" points="685.26 132.93 685.26 168.27 719.28 168.33 719.28 132.93 685.26 132.93"/>
      <path class="cls-51" d="M649.11,171.86l2.13,34.75,31.42-.61v-35.21s-32.84,.34-33.55,1.07Z"/>
      <polygon class="cls-16" points="685.26 170.79 685.26 205.68 716.61 205.68 718.32 170.79 685.26 170.79"/>
      <polygon class="cls-111" points="652.66 209.45 682.66 207.96 682.66 239.78 655.52 239.78 652.66 209.45"/>
      <polygon class="cls-76" points="685.26 207.96 715.03 208.03 710.78 240.63 685.65 240.63 685.26 207.96"/>
      <polygon class="cls-18" points="652.66 67.68 651.24 94.62 682.66 95.13 683.16 67.68 652.66 67.68"/>
      <polygon class="cls-72" points="686.09 67.68 685.26 95.13 718.58 95.13 715.93 67.68 686.09 67.68"/>
      <polygon class="cls-72" points="656.91 43.58 652.66 64.85 683.16 65.48 683.16 43.98 656.91 43.58"/>
      <path class="cls-9" d="M686.94,43.58l-.38,21.9h28.79s-3.16-21.9-4.58-21.9h-23.83Z"/>
      <path class="cls-75" d="M686.68,26.57l-1.42,14.89h25.08s-2.54-13.42-5.3-14.89h-18.36Z"/>
      <path class="cls-6" d="M683.16,27.22v14.49h-25.57s4.01-13.84,6.63-14.49h18.94Z"/>
      <polygon class="cls-84" points="683.84 24.66 683.84 15.47 670.37 15.47 663.64 24.66 683.84 24.66"/>
      <path class="cls-21" d="M686.68,15.23v9.92l19.02-.49s-5.3-8.94-7.2-9.19l-11.82-.25Z"/>
      <path class="cls-31" d="M685.26,243.26s21.97-1.92,24.81,.92c0,0-2.84,25.52-4.25,26.94h-20.56s-.71-27.35,0-27.85Z"/>
      <path class="cls-23" d="M682.66,243.31s-26.46-.55-26.46,.86c0,0,4.25,26.94,5.67,26.94h20.79v-27.8Z"/>
      <path class="cls-114" d="M661.87,275.37s18.43-2.84,21.26,0l.71,23.96h-15.21l-6.76-23.96Z"/>
      <path class="cls-18" d="M684.95,274.11v25.22h13.72s7.15-23.96,5.73-23.96c0,0-10.55-2.52-19.45-1.26Z"/>
      <polygon class="cls-49" points="683.13 320.73 683.13 301.1 669.23 301.1 677.43 320.73 683.13 320.73"/>
      <polygon class="cls-94" points="686.12 320.73 685.72 301.1 698.57 301.1 692.64 320.73 686.12 320.73"/>
      <path class="cls-108" d="M644.86,25.86h16.49l7.18-10.39s-13.75,.29-15.88,1.79l-7.8,8.59Z"/>
      <path class="cls-45" d="M622.18,30.11s14.18-12.76,18.43-11.34h9.92l-11.6,11.34h-16.75Z"/>
      <path class="cls-89" d="M629.26,44.29s10.31-15.59,12.25-15.59h18.65s-6.13,14.18-5.04,15.59h-25.85Z"/>
      <path class="cls-47" d="M629.26,47.46s-8.51,16.12-7.09,21.36l28.35-1.81s2.84-21.31,4.25-21.31c0,0-24.1,.67-25.52,1.75Z"/>
      <path class="cls-102" d="M615.09,99.58s26.94-4.25,33.31-2.13c0,0,.71-26.78,2.84-28.63,0,0-30.48,.99-31.9,3.82l-4.25,26.94Z"/>
      <path class="cls-6" d="M613.71,133.6s31.15-2.84,32.56-1.42v-30.98l-31.19,1.55-1.38,30.85Z"/>
      <path class="cls-111" d="M615.09,171.88s28.35-4.16,31.19-2.79v-34.72s-31.11,.6-32.56,3.46l1.38,34.05Z"/>
      <path class="cls-6" d="M615.09,176.13s22.68-5.67,32.61-2.84l1.42,32.97s-29.77,1.05-29.77,2.47l-4.25-32.61Z"/>
      <path class="cls-16" d="M622.18,212.99s17.01-4.25,28.35-2.84l2.84,29.63s-21.27,.14-22.68,1.56l-8.51-28.35Z"/>
      <path class="cls-74" d="M639.67,274.11s16.53-1.58,19.36-1.58l-4.25-26.94s-22.68,0-24.1,2.84l8.99,25.68Z"/>
      <path class="cls-67" d="M652.66,300.45s13.16-1.26,14.02-1.12l-7.01-24.01-19.06,1.47,12.05,23.66Z"/>
      <polygon class="cls-62" points="653.64 302.37 666.68 301.1 675.33 320.73 666.68 320.73 653.64 302.37"/>
      <polygon class="cls-3" points="605.87 47.83 627.14 46.42 638.4 29.3 621.47 29.4 605.87 47.83"/>
      <polygon class="cls-91" points="605.87 50.67 625.72 47.83 618.63 70.52 593.11 74.77 605.87 50.67"/>
      <polygon class="cls-37" points="593.11 76.19 583.19 104.54 613.71 100.17 618.63 73.35 593.11 76.19"/>
      <polygon class="cls-111" points="581.77 107.37 580.36 139.98 611.54 134.31 612.96 103.12 581.77 107.37"/>
      <polygon class="cls-85" points="580.36 142.82 581.77 179.67 612.96 174.26 611.54 135.73 580.36 142.82"/>
      <polygon class="cls-65" points="581.77 182.51 590.28 215.12 617.21 209.45 612.96 176.75 581.77 182.51"/>
      <polygon class="cls-57" points="591.7 217.95 604.46 249.14 628.56 243.47 618.63 210.86 591.7 217.95"/>
      <polygon class="cls-61" points="605.87 251.98 620.05 278.91 638.48 274.66 628.56 245.95 605.87 251.98"/>
      <polygon class="cls-29" points="621.47 280.33 637.06 301.59 651.09 301.1 638.48 276.08 621.47 280.33"/>
      <polygon class="cls-66" points="638.48 304.11 658.33 321.44 664.88 320.73 652.66 303.01 638.48 304.11"/>
      <path class="cls-41" d="M586.03,53.5s19.85-22.68,25.52-22.68h5.91l-15.71,21.42-15.71,1.26Z"/>
      <polygon class="cls-77" points="584.38 57.26 600.15 53.5 590.26 74.77 570.43 80.44 584.38 57.26"/>
      <polygon class="cls-47" points="569.01 83.27 559.09 111.63 581.77 105.96 590.28 79.02 569.01 83.27"/>
      <polygon class="cls-53" points="557.67 115.88 554.84 147.07 579.08 139.98 580.36 108.85 557.67 115.88"/>
      <polygon class="cls-72" points="554.84 149.93 557.67 185.35 580.36 178.97 578.94 142.82 554.84 149.93"/>
      <path class="cls-107" d="M558.02,188.7l9.58,31.84,21.49-5.43-7.31-32.61s-19.16,2.46-23.76,6.19Z"/>
      <polygon class="cls-107" points="567.55 223.87 583.19 254.81 603.21 249.14 590.28 217.95 567.55 223.87"/>
      <polygon class="cls-107" points="584.14 256.87 604.46 284.58 620.05 278.91 604.46 250.56 584.14 256.87"/>
      <polygon class="cls-12" points="605.87 285.39 620.05 279.98 636.28 303.01 627.14 307.26 605.87 285.39"/>
      <polygon class="cls-43" points="628.56 308.68 652.66 324.28 658.33 322.86 638.48 304.11 628.56 308.68"/>
      <path class="cls-92" d="M581.77,56.34s-8.51,1.42-9.92,4.25l-18.43,25.52,14.18-3.81,15.59-25.96h-1.42Z"/>
      <polygon class="cls-83" points="566.01 84.2 549.17 91.78 540.66 118.72 557.67 111.63 566.01 84.2"/>
      <polygon class="cls-8" points="537.83 124.39 556.26 115.88 553.42 148.49 536.41 156.99 537.83 124.39"/>
      <polygon class="cls-86" points="536.41 158.41 540.66 192.43 556.26 186.06 553.42 149.9 536.41 158.41"/>
      <polygon class="cls-11" points="540.1 195.93 557.67 189.6 567.6 220.54 552 229.29 540.1 195.93"/>
      <polygon class="cls-30" points="552 232.13 567.55 223.87 581.77 254.07 569.01 260.48 552 232.13"/>
      <polygon class="cls-19" points="570.43 263.32 583.19 256.23 602.1 282.88 592.62 287.88 570.43 263.32"/>
      <polygon class="cls-100" points="594.53 290.25 604.46 284.58 625.83 307.26 619.41 310.92 594.53 290.25"/>
      <polygon class="cls-25" points="621.47 312.23 627.14 308.68 652.66 324.28 648.4 327.11 621.47 312.23"/>
      <path class="cls-28" d="M547.75,91.78s-18.44,25.58-19.85,36.18l12.77-9.25,7.09-26.94Z"/>
      <polygon class="cls-87" points="534.99 159.83 520.81 172.54 524.38 209.45 539.24 193.85 534.99 159.83"/>
      <polygon class="cls-26" points="527.9 208.03 540.1 236.38 550.64 229.29 539.27 197.09 527.9 208.03"/>
      <polygon class="cls-105" points="527.08 208.74 523.65 213.7 534.99 243.47 540.1 236.38 527.08 208.74"/>
      <polygon class="cls-52" points="540.66 239.22 552 232.13 569.01 260.48 559.09 267.57 540.66 239.22"/>
      <path class="cls-20" d="M536.41,244.89l4.25-5.67,18.43,28.35-4.25,7.09s-18.43-25.52-18.43-29.77Z"/>
      <polygon class="cls-42" points="560.51 270.4 569.01 263.32 591.7 288.83 584.14 293.62 560.51 270.4"/>
      <polygon class="cls-101" points="560.51 271.82 556.26 277.49 578.94 300.18 584.14 294.66 560.51 271.82"/>
      <polygon class="cls-48" points="587.44 295.92 593.11 290.25 618.63 311.52 614.38 315.77 587.44 295.92"/>
      <path class="cls-26" d="M580.52,303.01l5.75-6.73,26.7,19.48-3.29,5.67s-27.57-15.59-29.15-18.43Z"/>
      <polygon class="cls-106" points="620.05 312.93 615.8 317.19 645.57 331.36 648.4 328.53 620.05 312.93"/>
      <polygon class="cls-36" points="614.38 318.6 611.54 322.86 643.44 336.14 645.57 332.78 614.38 318.6"/>
      <polygon class="cls-54" points="648.4 332.74 645.57 336.14 656.2 338.98 648.4 332.74"/>
      <polygon class="cls-82" points="651.68 328.87 649.15 331.36 666.83 341.29 679.59 341.29 651.68 328.87"/>
      <polygon class="cls-73" points="656.91 325.69 668.25 322.86 682.43 337.03 656.91 325.69"/>
      <polygon class="cls-78" points="671.08 322.86 683.4 335.08 677.24 321.68 671.08 322.86"/>
      <polygon class="cls-26" points="678.88 321.44 684.63 321.68 685.26 335.62 678.88 321.44"/>
      <polygon class="cls-60" points="686.68 322.86 686.68 335.62 699.44 324.28 686.68 322.36 686.68 322.86"/>
      <polygon class="cls-4" points="689.75 335.62 702.27 322.86 710.78 325.69 688.1 338.45 689.75 335.62"/>
      <polygon class="cls-34" points="715.03 327.11 721.38 335.62 690.93 339.87 713.61 325.69 715.03 327.11"/>
      <polygon class="cls-115" points="700.15 15.94 712.42 15.94 724.39 26.57 707.23 25.86 700.15 15.94"/>
      <polygon class="cls-110" points="715.74 17.35 727.08 27.28 744.09 30.11 724.39 17.56 715.74 17.35"/>
      <path class="cls-39" d="M735.59,21.61l11.34,9.92h11.34s-17.01-9.92-22.68-9.92Z"/>
      <polygon class="cls-27" points="707.23 28.7 714.32 41.45 734.17 41.45 723.72 28.7 707.23 28.7"/>
      <polygon class="cls-31" points="729.2 30.11 738.48 43.58 756.85 45.71 745.16 31.53 729.2 30.11"/>
      <polygon class="cls-55" points="748.35 32.95 763.94 49.96 780.95 55.63 761.02 34.01 748.35 32.95"/>
      <path class="cls-97" d="M768.19,38.62l14.97,17.01,16.22,4.25s-22.68-19.85-31.19-21.26Z"/>
      <polygon class="cls-72" points="712.91 44.29 717.16 66.97 746.93 68.78 737.01 44.29 712.91 44.29"/>
      <polygon class="cls-80" points="739.84 47.12 748.35 69.51 773.86 74.06 762.52 49.96 739.84 45.71 739.84 47.12"/>
      <polygon class="cls-33" points="765.36 52.8 775.04 74.06 797.96 79.73 782.37 57.05 765.36 52.8"/>
      <polygon class="cls-104" points="786.62 58.47 799.38 79.73 814.98 86.82 799.38 62.49 786.62 58.47"/>
      <path class="cls-88" d="M801.18,63.21l15.21,25.02,9.92,5.67s-19.08-28.78-25.14-30.69Z"/>
      <polygon class="cls-86" points="718.58 68.78 720.7 97.45 752.6 99.58 746.93 71.55 718.58 68.78"/>
      <polygon class="cls-6" points="749.24 72.64 754.21 99.58 781.66 103.88 773.86 76.38 749.24 72.64"/>
      <polygon class="cls-18" points="776.7 76.9 783.79 104.61 807.89 110.92 799.38 82.38 776.7 76.9"/>
      <path class="cls-63" d="M801.9,84.18l7.41,28.16,18.43,7.09s-6.14-19.31-9.45-27.54c-.9-2.23-1.59-3.65-1.89-3.65-1.42,0-14.5-4.06-14.5-4.06Z"/>
      <path class="cls-113" d="M829.15,122.26l12.76,8.51s-11.34-33.29-15.59-35.08l-7.09-3.2,9.92,29.77Z"/>
      <polygon class="cls-56" points="721.41 98.16 721.41 129.48 752.6 133.6 752.6 102.71 721.41 98.16"/>
      <polygon class="cls-81" points="755.44 102.41 755.44 134.6 785.21 140.69 782.37 108.08 755.44 102.41"/>
      <polygon class="cls-111" points="785.21 108.42 807.89 113.54 810.72 146.36 787.27 140.69 785.21 108.42"/>
      <path class="cls-93" d="M810.72,114.08l1.85,32.28,19.41,9.92s0-31.19-2.84-32.61l-18.43-9.59Z"/>
      <path class="cls-15" d="M831.99,126.53l1.42,31.17,11.34,8.51s.52-31.7-3.99-34.28l-8.76-5.4Z"/>
      <polygon class="cls-6" points="722.2 133.6 721.41 168.92 752.6 170.79 752.6 137.19 722.2 133.6"/>
      <polygon class="cls-85" points="755.44 137.31 754.41 170.79 783.79 177.55 786.62 144.94 755.44 137.31"/>
      <path class="cls-107" d="M721.41,173.3l-4.25,31.19,28.35,4.25,7.09-32.63s-26.94-5.64-31.19-2.81Z"/>
      <path class="cls-85" d="M755.44,175.63l-6.17,33.11,26.02,7.09s9.92-34.02,5.67-35.44l-25.52-4.76Z"/>
      <polygon class="cls-85" points="717.16 208.74 745.51 211.57 738.13 242.63 712.98 240.63 717.16 208.74"/>
      <polygon class="cls-50" points="749.76 212.99 740.28 243.21 762.52 247.01 773.86 217.24 749.76 212.99"/>
      <polygon class="cls-111" points="712.91 244.18 737.17 245.6 727.11 273.75 707.23 272.53 712.91 244.18"/>
      <polygon class="cls-38" points="740.28 246.04 762.52 249.85 748.35 276.78 728.5 275.37 740.28 246.04"/>
      <polygon class="cls-109" points="707.23 275.31 726.27 276.78 714.32 299.47 700.53 299.47 707.23 275.31"/>
      <polygon class="cls-44" points="700.53 301.59 692.64 320.73 701.48 320.73 713.4 303.01 700.53 301.59"/>
      <polygon class="cls-26" points="703.02 320.73 714.78 303.01 726.27 305.55 710.78 322.86 703.02 320.73"/>
      <polygon class="cls-71" points="728.5 305.19 711.9 322.86 714.06 324.28 738.13 308.68 728.5 305.19"/>
      <path class="cls-70" d="M739.2,308.68l7.18,3.54s-24.98,14.18-27.81,14.18l-3.08-.71,23.71-17.01Z"/>
      <polygon class="cls-26" points="746.71 312.93 751.18 316.48 719.92 330.65 718.58 327.82 746.71 312.93"/>
      <polygon class="cls-32" points="751.48 317.54 754.02 322.15 721.38 332.78 719.92 330.65 751.48 317.54"/>
      <polygon class="cls-87" points="715.74 300.88 728.5 303.01 745.51 281.04 728.5 276.78 715.74 300.88"/>
      <polygon class="cls-90" points="746.93 281.04 761.11 283.87 739.84 305.14 729.92 303.72 746.93 281.04"/>
      <polygon class="cls-103" points="762.52 285.29 773.86 289.54 751.18 309.39 741.26 306.55 762.52 285.29"/>
      <polygon class="cls-58" points="775.28 290.96 782.37 295.21 756.85 313.64 751.77 311.16 775.28 290.96"/>
      <polygon class="cls-108" points="783.79 296.63 788.04 300.88 758.27 319.31 756.85 316.48 783.79 296.63"/>
      <polygon class="cls-29" points="763.94 249.85 749.76 276.78 763.94 281.65 782.37 255.52 763.94 249.85"/>
      <polygon class="cls-69" points="783.79 255.52 798.02 261.41 777 287.39 765.36 282.45 783.79 255.52"/>
      <polygon class="cls-35" points="799.38 262.61 807.89 269.7 785.21 293.8 778.12 288.13 799.38 262.61"/>
      <polygon class="cls-95" points="809.31 269.7 814.98 275.37 790.88 298.05 786.62 295.21 809.31 269.7"/>
      <polygon class="cls-6" points="775.28 217.24 797.96 222.91 782.37 252.39 764.55 247.01 775.28 217.24"/>
      <polygon class="cls-17" points="799.38 222.91 785.21 252.68 799.38 258.98 816.39 231.42 800.08 222.91 799.38 222.91"/>
      <polygon class="cls-24" points="817.81 231.42 800.8 259.77 809.31 267.23 829.15 239.93 817.81 231.42"/>
      <polygon class="cls-59" points="830.57 239.93 810.3 267.23 814.98 271.11 833.96 242.25 830.57 239.93"/>
      <polygon class="cls-6" points="783.79 180.38 776.7 214.41 797.96 218.66 807.89 187.47 783.79 180.38"/>
      <polygon class="cls-99" points="810.72 187.47 799.38 218.66 816.39 227.49 827.74 195.98 810.72 187.47"/>
      <polygon class="cls-49" points="829.15 195.98 817.81 227.17 829.15 235.49 840.49 205.9 829.15 195.98"/>
      <polygon class="cls-7" points="840.49 207.32 830.57 235.67 834.82 238.51 844.75 210.15 840.49 207.32"/>
      <polygon class="cls-22" points="786.62 143.52 785.21 177.29 807.89 183.22 809.31 149.2 786.62 143.52"/>
      <polygon class="cls-13" points="812.14 150.61 810.72 184.64 829.15 193.14 831.99 158.49 812.14 150.61"/>
      <polygon class="cls-96" points="833.41 160.54 829.15 193.14 841.91 201.65 844.77 168.14 833.41 160.54"/>
    </g>
  </g>
</svg>