<?xml version="1.0" encoding="UTF-8"?>
<svg id="Lager_1" data-name="Lager 1" xmlns="http://www.w3.org/2000/svg" viewBox="0 0 1081 1084">
  <defs>
    <style>
      .cls-1, .cls-2, .cls-3, .cls-4, .cls-5, .cls-6, .cls-7, .cls-8, .cls-9, .cls-10, .cls-11 {
        stroke-miterlimit: 10;
      }

      .cls-1, .cls-2, .cls-3, .cls-9, .cls-10 {
        fill: none;
      }

      .cls-1, .cls-2, .cls-4, .cls-5, .cls-8, .cls-9, .cls-10, .cls-11 {
        stroke: #8b1812;
      }

      .cls-1, .cls-11 {
        stroke-width: 3px;
      }

      .cls-2 {
        stroke-width: 6px;
      }

      .cls-3 {
        stroke-width: 38px;
      }

      .cls-3, .cls-7 {
        stroke: #fff;
      }

      .cls-12 {
        fill: #f4f7fd;
      }

      .cls-13, .cls-4, .cls-6, .cls-7 {
        fill: #fff;
      }

      .cls-14, .cls-5, .cls-8, .cls-11 {
        fill: #8b1812;
      }

      .cls-4, .cls-5, .cls-9 {
        stroke-width: 2px;
      }

      .cls-6 {
        stroke: #1d1d1b;
      }
    </style>
  </defs>
  <rect class="cls-6" x=".5" y="2.03" width="1080" height="1080"/>
  <g>
    <rect class="cls-3" x="19.92" y="19" width="1041" height="1046"/>
    <g>
      <path class="cls-9" d="M324.82,743s21.6-17.62,58.51-.88"/>
      <path class="cls-9" d="M309.27,657.39l-12.36-13.4,6.18-6.32,12.72,17.12-14.4-18.9,8.1-6.3,9.9,19.8s-14.23-27.39-12.96-33.05l8.46-7.46,2.7,8.1,4.5,14.4-3.6,2.7s4.38,14.94,4.44,29.07l.96,10.53h11.28s-2.88-24.18-4.34-35.62c-.28-2.17-.5-3.88-.64-4.88h-8.1l-2.7-17.1s8.1-4.5,11.7,0l3.6,11.7,3.6,6.3,.9,8.1-7.2-3.6-.9-.9"/>
      <polyline class="cls-9" points="345.52 677.29 343.72 646.69 339.22 642.19"/>
      <path class="cls-9" d="M345.52,661.88l18.9-34.09,7.2,6.3-9.62,18.64-12.68,24.57s10.6,4.34,22.3-16.73l-9-6.67h0"/>
      <polygon class="cls-9" points="384.22 655.69 396.83 630.49 404.93 634.09 393.22 657.49 386.92 664.69 384.22 655.69"/>
      <polyline class="cls-9" points="372.52 658.39 394.57 616.57 402.23 621.49 398.39 631.19"/>
      <polyline class="cls-9" points="371.62 634.09 381.52 622.39 389.19 626.78"/>
      <path class="cls-9" d="M395.02,615.19l.9-.9-11.7-6.91s-9.9,13.21-9,21.31"/>
      <path class="cls-9" d="M379.72,612.49l-10.02-3.6s-8.83,9.9-6.6,19.8"/>
      <path class="cls-9" d="M350.18,652.73s-1.73-42.71,12.56-52.73l8.88,4.61-1.92,4.27"/>
      <polyline class="cls-9" points="358.12 603.49 348.22 602.59 338.32 634.09"/>
      <path class="cls-9" d="M345.52,606.94h-8.64s-3.96,11.84-2.16,17.25,.51,4.5,.51,4.5"/>
      <polyline class="cls-9" points="323.02 613.39 322.12 607.99 330.22 603.49 332.32 602.59 335.13 608.89 335.59 611.52"/>
      <path class="cls-5" d="M306.45,659.75c-.01,.45,.09,.91,.19,1.35,4.03,17.2,7.89,34.44,11.82,51.66,2.27,9.93,4.53,19.87,6.8,29.8,0,0,29.7-26.1,57.61-.9l12.05-81.91s-5.3-4.95-10.7-2.25c-.47,.23-1.06,1.58-1.37,2-1.27,1.71-2.68,3.32-4.19,4.82-4.62,4.58-10.32,8.13-16.65,9.75-15.85,4.08-31.86-4.69-43.37-14.95-.62-.55-1.24-1.12-2-1.46-.57-.25-1.2-.37-1.82-.44-1.84-.23-3.72-.17-5.55,.18-1.1,.21-2.33,.65-2.7,1.7-.08,.21-.11,.43-.12,.66Z"/>
    </g>
    <g>
      <circle class="cls-8" cx="920.42" cy="532.5" r="102"/>
      <circle class="cls-12" cx="922.42" cy="534.5" r="33"/>
      <path class="cls-12" d="M874.87,463.95c-1.28,1.12-2.47,2.36-3.68,3.47-2.26,2.07-4.52,4.13-6.78,6.2-1.86,1.7-3.33,3.97-3.63,6.52-.04,.31-.05,.66,.13,.92,.19,.27,.55,.39,.88,.36,2.1-.17,3.68-1.86,5.37-2.93,1.88-1.19,4.07-2.19,6.35-1.95,.47,.05,1.02,.23,1.15,.69,.1,.35-.1,.72-.3,1.02-2.51,3.84-6.05,7.14-9.04,10.61-3.2,3.72-6.35,7.49-9.43,11.31-.59,.73-1.17,1.45-1.75,2.18-1.29,1.62-2.58,3.26-3.57,5.08-.86,1.59-1.46,3.31-1.63,5.12-.05,.59-.03,1.27,.4,1.68,.52,.48,1.35,.34,2.02,.1,2.61-.94,4.61-3.08,6.68-4.85,3.83-3.26,7.66-6.53,11.49-9.79l5.75-4.89,2.87-2.45c.86-.74,1.77-1.79,2.76-2.34,1.75-.97,4.16-1.15,6.12-1.07,.99,.04,2.14,.29,2.57,1.19,.23,.49,.18,1.07,.06,1.61-.58,2.48-2.31,4.54-2.12,7.2,.02,.33,.08,.67,.31,.91,.44,.46,1.21,.26,1.77-.04,.81-.43,1.54-1,2.27-1.57,2.21-1.72,4.43-3.44,6.64-5.16,.96-.75,1.99-1.61,2.2-2.8,.05-.29,.05-.61-.1-.87-.34-.6-1.2-.58-1.88-.48-1.06,.15-2.14,.44-3.22,.37-.75-.05-1.5-.28-2.06-.78s-.87-1.3-.67-2.03c.16-.58,.6-1.02,1.02-1.44,1.32-1.3,2.63-2.61,3.95-3.92,1.58-1.57,3.68-2.83,3.43-5.38-.04-.44-.17-.89-.49-1.19-.22-.2-.52-.31-.81-.36-1.64-.27-3.32,.92-4.6,1.78-2.43,1.63-4.64,3.57-7.09,5.17-1.5,.98-3.24,1.73-5.02,1.6-.41-.03-.84-.12-1.12-.43-.34-.37-.33-.96-.19-1.44,.31-1.09,1.15-1.95,2.06-2.63,5.02-3.72,10.28-7.16,15.4-10.75,3.99-2.79,7.98-5.59,11.98-8.37,1.51-1.05,2.8-2.22,3.27-4.08,.12-.49,.15-1.08-.22-1.41-.22-.19-.52-.25-.81-.28-2.47-.29-4.58,.6-6.68,1.78-6.48,3.57-12.88,7.29-19.32,10.93-.56,.32-1.12,.63-1.71,.87-1.3,.53-2.74,.68-4.12,.44-.41-.07-.85-.21-1.06-.56-.35-.59,.11-1.35,.28-1.94,.23-.82,.37-1.69,.14-2.52-.11-.41-.32-.81-.68-1.03-.56-.34-1.29-.14-1.89,.13-1.34,.61-2.54,1.5-3.67,2.49Z"/>
      <path class="cls-12" d="M950.8,614.73c1.42-.67,2.8-1.47,4.17-2.15,2.54-1.27,5.08-2.53,7.61-3.8,2.09-1.04,3.99-2.7,4.92-4.9,.11-.27,.22-.58,.13-.86-.09-.3-.39-.49-.69-.55-1.9-.39-3.74,.71-5.51,1.23-1.97,.58-4.17,.91-6.11,.1-.4-.17-.84-.47-.84-.91,0-.34,.28-.62,.54-.84,3.23-2.79,7.22-4.83,10.77-7.17,3.8-2.51,7.57-5.07,11.3-7.69,.71-.5,1.42-1,2.12-1.5,1.57-1.12,3.13-2.25,4.48-3.63,1.18-1.2,2.16-2.58,2.78-4.16,.2-.52,.36-1.13,.09-1.61-.33-.57-1.1-.65-1.75-.61-2.55,.17-4.88,1.56-7.18,2.61-4.24,1.93-8.48,3.86-12.72,5.8l-6.36,2.9c-1.06,.48-2.12,.97-3.18,1.45-.96,.44-2.04,1.15-3.06,1.38-1.8,.42-3.98-.05-5.69-.63-.87-.3-1.82-.82-1.96-1.73-.08-.5,.12-1.01,.37-1.46,1.16-2.07,3.24-3.47,3.76-5.9,.06-.3,.1-.62-.03-.89-.26-.53-1-.55-1.57-.42-.83,.18-1.63,.5-2.42,.82-2.41,.97-4.81,1.94-7.22,2.9-1.05,.42-2.18,.92-2.68,1.94-.12,.25-.2,.54-.14,.81,.15,.62,.91,.83,1.53,.92,.98,.14,2,.16,2.94,.5,.65,.24,1.25,.64,1.61,1.24s.42,1.39,.06,1.99c-.29,.48-.8,.76-1.28,1.03-1.51,.82-3.01,1.66-4.52,2.49-1.81,1-3.99,1.59-4.45,3.94-.08,.4-.09,.84,.12,1.19,.14,.24,.37,.41,.62,.53,1.38,.67,3.17,.04,4.53-.4,2.57-.83,5.04-2,7.62-2.8,1.58-.49,3.31-.71,4.85-.13,.35,.13,.71,.33,.88,.67,.2,.42,.04,.94-.21,1.34-.56,.89-1.53,1.45-2.51,1.82-5.41,2.04-10.96,3.76-16.43,5.64-4.26,1.47-8.52,2.94-12.78,4.4-1.61,.55-3.06,1.27-3.96,2.81-.24,.4-.42,.93-.17,1.32,.14,.23,.39,.36,.64,.46,2.1,.9,4.2,.65,6.36,.13,6.66-1.52,13.29-3.2,19.93-4.79,.57-.14,1.15-.28,1.74-.34,1.28-.14,2.6,.1,3.76,.67,.34,.17,.7,.41,.79,.78,.15,.62-.46,1.18-.76,1.66-.42,.67-.77,1.42-.79,2.23-.01,.39,.07,.81,.33,1.1,.4,.45,1.1,.46,1.7,.37,1.35-.2,2.64-.69,3.89-1.28Z"/>
      <circle class="cls-5" cx="922.42" cy="534.5" r="4.5"/>
    </g>
    <g>
      <path class="cls-9" d="M405.82,962.3c-8.09-2.54-16.49-4.22-25.47-4.63-10.84-.5-21.97,1.16-31.52,6.3,5.77,21.95,22.54,39.63,41.69,51.84,5.37,3.42,11.18,6.56,17.53,7.13,5.99,.53,12.04-1.31,17.21-4.39,4.92-2.93,9.15-6.82,12.9-11.12,3.32-3.82,5.46-9,9.21-12.34,.89-.8,1.95-1.46,3.12-1.67,1.95-.35,3.95,.63,5.33,2.05,6.15,6.34,9.42,15.29,16.84,20.3s16.66,6.55,25.28,5.14c11.36-1.86,21.53-8.45,29.63-16.63,5.61-5.67,10.35-12.11,14.79-18.71,1.05-1.56,11.87-18.51,10.57-19.54-10.9-8.63-30.98-8.68-43.96-6.96-14.43,1.91-28.25,7.3-40.88,14.53-6.42,3.67-13.23,7.99-20.57,7.13-6.99-.82-12.28-5.98-18.31-9.07-7.34-3.77-15.51-6.87-23.39-9.34Z"/>
      <path class="cls-5" d="M522.9,967.92c-1.42,.23-2.83,.47-4.22,.65-12.91,1.74-25.83,4.01-38.18,8.29-.49,.17-.98,.34-1.48,.52-4.4,1.59-8.81,3.49-12.28,6.63-1.55,1.4-2.94,3.12-3.31,5.17-.64,3.53,1.83,6.82,4.31,9.41,4.03,4.21,8.57,8.04,13.84,10.54,5.1,2.43,10.7,3.61,16.3,2.39,4.24-.92,8.18-2.97,11.64-5.58,6.04-4.56,10.61-10.74,15.88-16.17,2.71-2.8,5.61-5.4,8.28-8.24,2.42-2.58,6.21-6.09,5.63-9.98-.38-2.55-2.48-3.6-4.83-4.06-3.82-.75-7.74-.2-11.59,.42Z"/>
      <path class="cls-5" d="M379.38,968.51c1.42,.23,2.82,.47,4.21,.65,12.91,1.74,25.82,4.01,38.16,8.29,.49,.17,.98,.34,1.47,.52,4.4,1.59,8.8,3.49,12.28,6.63,1.55,1.4,2.94,3.12,3.31,5.17,.64,3.53-1.83,6.82-4.31,9.41-4.03,4.21-8.57,8.04-13.83,10.54-5.1,2.43-10.7,3.61-16.29,2.39-4.24-.92-8.17-2.97-11.63-5.58-6.04-4.56-10.61-10.74-15.87-16.17-2.71-2.8-5.61-5.4-8.27-8.24-2.42-2.58-6.21-6.09-5.63-9.98,.38-2.55,2.48-3.6,4.82-4.06,3.82-.75,7.73-.2,11.58,.42Z"/>
      <path class="cls-9" d="M364.27,957.58c6.98-16.15,13.96-32.3,20.94-48.45,2.69-6.21,5.37-12.42,8.05-18.63,.85-1.97,1.75-4.01,3.36-5.42,1.46-1.28,3.41-1.93,5.34-2.11,1.97-.17,4.04,.14,5.68,1.23s2.79,3.05,2.58,5.01c-.05,.43-.16,.88-.47,1.19-.41,.42-1.05,.49-1.64,.5-1.8,.03-3.46-.42-5.15-.88-1.58,3.2-2.42,7.05-3.56,10.45-2.27,6.81-4.54,13.61-6.81,20.42l-11.81,35.41-.46,1.37"/>
      <path class="cls-9" d="M537.92,959.22c-6.98-16.15-13.96-32.3-20.95-48.45-2.69-6.21-5.37-12.42-8.05-18.63-.85-1.97-1.75-4.01-3.36-5.42-1.46-1.28-3.41-1.93-5.35-2.11-1.97-.17-4.04,.14-5.68,1.23s-2.79,3.05-2.58,5.01c.05,.43,.16,.88,.47,1.19,.41,.42,1.05,.49,1.64,.5,1.8,.03,3.46-.42,5.16-.88,1.58,3.2,2.42,7.05,3.56,10.45,2.27,6.81,4.54,13.61,6.81,20.42,3.94,11.8,7.87,23.61,11.81,35.41l.46,1.37"/>
      <path class="cls-12" d="M425.41,985.5c-1.98,2.71-3.93,5.43-5.72,8.26-.81,1.28-1.6,2.57-2.28,3.92-.42,.84-.99,1.85-.99,2.82,3.08-4,6.39-8.21,8.51-12.82,.32-.7,.62-1.4,.48-2.19Z"/>
      <path class="cls-12" d="M427.9,990.59c-1.09,1.5-2.18,3.01-3.17,4.57-.45,.71-.89,1.42-1.26,2.17-.23,.46-.55,1.03-.55,1.56,1.71-2.22,3.54-4.55,4.72-7.1,.18-.39,.34-.78,.27-1.21Z"/>
      <path class="cls-12" d="M517.66,979.31c-1.98,2.71-3.93,5.43-5.72,8.26-.81,1.28-1.6,2.57-2.28,3.92-.42,.84-.99,1.85-.99,2.82,3.08-4,6.39-8.21,8.51-12.82,.32-.7,.62-1.4,.48-2.19Z"/>
      <path class="cls-12" d="M520.14,984.4c-1.09,1.5-2.18,3.01-3.17,4.57-.45,.71-.89,1.42-1.26,2.17-.23,.46-.55,1.03-.55,1.56,1.71-2.22,3.54-4.55,4.72-7.1,.18-.39,.34-.78,.27-1.21Z"/>
    </g>
    <g>
      <ellipse class="cls-11" cx="632.42" cy="303" rx="31" ry="32.5"/>
      <ellipse class="cls-11" cx="685.42" cy="309" rx="31" ry="32.5"/>
      <path class="cls-9" d="M583.51,260.57c4.35-5.56,8.46-11.73,11.28-18.21,.97-2.23,1.8-4.52,3.03-6.62,2.13-3.64,5.45-6.57,9.32-8.25,5-2.17,10.66-2.23,16.1-1.79,4.5,.37,8.99,1.07,13.51,1.08,3.39,0,7.36,.54,10.67-.29-.17,.04-.84,4.69-.93,5.03-.89,3.51-2.19,6.85-3.99,9.98-3.38,5.88-8.18,11.4-14.76,13.68-1.87,.65-3.83,1.01-5.78,1.36-6.53,1.17-13.08,2.2-19.66,3.06-6.34,.83-12.42,1.78-18.85,1.03,.02-.02,.04-.05,.06-.07Z"/>
      <path class="cls-9" d="M635.42,288.5s41-30,1-79c0,0,55,29,48,88"/>
      <path class="cls-9" d="M583.51,260.57s38.91-28.07,62.91-32.07"/>
    </g>
    <g>
      <path class="cls-1" d="M67.59,619.07s-18.18,16.66-18.18,22.72c0,0,49.99,1.51,65.13,10.6l19.69-18.18,51.5-24.24,10.6-10.6-57.02-13.5-16.44,11.6-26.51-8.7-42.41,25.75,13.63,4.54Z"/>
      <polyline class="cls-1" points="75.17 643.31 85.77 700.87 140.3 714.5 140.3 633.56"/>
      <polyline class="cls-1" points="179.86 642.29 179.86 688.45 140.3 714.5"/>
      <path class="cls-8" d="M137.27,608.47c1.47-11.11,2.93-22.22,4.4-33.33,1.14-8.64,2.28-17.28,3.42-25.93l1.41-10.7c.5-3.76,.34-8.53,2.1-11.87,.17-.33,.37-.64,.58-.94,.39-.54,1.06-1.07,1.67-.79,.27,.13,.46,.39,.61,.65,1.56,2.71,.55,6.7,.29,9.73-.27,3.2-.54,6.4-.81,9.6-.69,8.16-1.37,16.32-2.06,24.49-.59,6.97-1.17,13.94-1.76,20.91-.19,2.21-.37,4.41-.56,6.62-.05,.6,.1,1.94-.21,2.47,1.93-3.32,3.87-6.63,5.82-9.93,4.06-6.87,8.14-13.73,12.31-20.53,2.45-3.99,4.81-8.04,7.37-11.96,1.04-1.58,2.22-3.09,3.24-4.67,1.82-2.81,4.45-4.72,7.48-6.1,.34-.15,.81-.27,1.02,.04,.1,.15,.1,.34,.08,.52-.31,4.34-3.17,7.58-5.43,11.09l-5.1,7.95c-4.17,6.5-8.35,13-12.52,19.51-3.65,5.69-7.31,11.38-10.96,17.07-.96,1.49-1.91,2.98-2.87,4.47-.1,.16-.86,1.65-1.06,1.65,0,0-8.49,0-8.49,0Z"/>
      <polyline class="cls-1" points="70.62 617.56 137.36 632.75 187.04 607.95 203.92 626.65 166.05 649.37 143.33 631.19"/>
      <polyline class="cls-9" points="114.55 596.35 67.59 619.07 116.44 595.37"/>
      <line class="cls-9" x1="122.88" y1="597.11" x2="180.44" y2="612.26"/>
      <path class="cls-9" d="M89.55,621.35c1.62-1.87,3.78-3.4,6.08-4.3,2.02-.79,4.26-1.06,6.39-.57,2.65,.6,4.29,2.03,6.18,3.91,1.38,1.37,2.87,2.65,4.56,3.61,1.93,1.11,4.36,1.78,6.37,.82,1.35-.64,2.29-1.92,2.92-3.27,.32-.67,.57-1.37,1.01-1.97,.41-.56,.96-1,1.55-1.37,2.44-1.53,5.52-1.83,8.33-1.2,5.8,1.3,10.49,5.99,14.16,10.39"/>
      <path class="cls-9" d="M103.45,616.23c2.08-4.05,5.56-7.74,9.63-9.79,2.91-1.46,6.3-2.08,9.47-1.35,4.02,.93,7.34,3.88,11.36,4.81,3.76,.87,7.68-.11,11.54-.16,6.02-.07,14.7,2.23,16.81,8.57"/>
    </g>
    <g>
      <path class="cls-1" d="M295.43,210.97v8.75c0,11.81-.01,23.61-.02,35.42,0,.66,0,1.34,.22,1.96,.3,.84,.96,1.5,1.6,2.12,5.37,5.22,10.72,10.93,17.31,14.64s13.68,5.57,21.01,5.39c8.29-.2,16.27-3.07,23.39-7.19,3.62-2.1,7.04-4.53,10.29-7.16,2.34-1.9,6.18-6.14,6.18-9.39v-15.22c0,1.01,4.54,2.98,5.39,3.37,5.74,2.67,12.94,1.81,16.58-3.79,1.78-2.74,2.45-6.1,2.29-9.37-.11-2.15-.58-4.33-1.76-6.14-1.66-2.54-4.58-4.08-7.58-4.53-6-.9-12.45,1.67-16,6.62,.65-.91,.08-4.38,.08-5.6,0-3.48,0-6.96,0-10.44,0-2.46-.73-3.11-2.3-4.95-9.67-11.31-23.4-13.95-37.59-14.54-6.27-.26-12.58-.33-18.77,.72-4.17,.71-8.28,1.94-12.04,3.89-3.13,1.62-7.33,4.08-8.19,7.81-.04,.16-.06,1.24-.08,2.58-.02,1.74-.03,3.9-.03,5.04Z"/>
      <path class="cls-14" d="M304.42,213.5c-.09-.06,3.74-3.88,4.1-4.19,2.1-1.84,4.47-3.35,7-4.54,5.09-2.4,10.77-3.51,16.39-3.47,6.4,.05,12.71,1.48,18.7,3.65,2.77,1,5.72,2,8.09,3.73,1.23,.9,2.49,1.72,3.64,2.72,.34,.29,2.92,3.15,3.08,3.11,0,0-38,12-61-1Z"/>
      <path class="cls-1" d="M294.92,206c5.47,6.92,14.22,11.04,22.73,12.65,7.22,1.36,14.64,1.19,21.97,.67,11.12-.79,25.89-2.3,33.63-11.41"/>
      <ellipse class="cls-1" cx="386.42" cy="233" rx="7" ry="4.5"/>
      <path class="cls-9" d="M311.42,182.5c-.96-4.45-1.42-9.34-1.1-13.88,.28-4.09,1.47-8.22,4.05-11.39,1.36-1.67,3.05-3.03,4.54-4.58,3.62-3.78,5.98-8.88,5.96-14.12-.03-6.08-3.18-9.91-7.45-13.74"/>
      <path class="cls-9" d="M336.01,182.93c-.96-4.45-1.42-9.34-1.1-13.88,.28-4.09,1.47-8.22,4.05-11.39,1.36-1.67,3.05-3.03,4.54-4.58,3.62-3.78,5.98-8.88,5.96-14.12-.03-6.08-3.18-9.91-7.45-13.74"/>
      <path class="cls-9" d="M358.01,182.93c-.96-4.45-1.42-9.34-1.1-13.88,.28-4.09,1.47-8.22,4.05-11.39,1.36-1.67,3.05-3.03,4.54-4.58,3.62-3.78,5.98-8.88,5.96-14.12-.03-6.08-3.18-9.91-7.45-13.74"/>
    </g>
    <g>
      <ellipse class="cls-13" cx="734.65" cy="878.62" rx="24.59" ry="24.6" transform="translate(-252.27 297.52) rotate(-19.61)"/>
      <polygon class="cls-9" points="701.16 921.95 740.85 1016 780.54 889.17 701.16 921.95"/>
      <line class="cls-9" x1="719.28" y1="934.9" x2="751.2" y2="957.33"/>
      <line class="cls-9" x1="722.07" y1="946.11" x2="727.04" y2="930.58"/>
      <line class="cls-9" x1="727.04" y1="958.21" x2="745.16" y2="972"/>
      <line class="cls-9" x1="739.12" y1="933.17" x2="756.38" y2="944.39"/>
      <line class="cls-9" x1="742.57" y1="924.54" x2="729.63" y2="970.27"/>
      <line class="cls-9" x1="756.38" y1="924.54" x2="742.57" y2="981.63"/>
      <path class="cls-4" d="M703.75,914.19c-15.27,.14-37.34-11.27-31.58-29.97,1-3.25,3.02-6.08,5.18-8.7,6.18-7.49,14.65-14.09,24.36-14.22,9.52-.12,21.66,6.12,26.92,14.13,4.77,7.27,2.44,15.06-2.45,21.5"/>
      <path class="cls-4" d="M686.91,910.37c6.25,3.14,12.1,9.13,12.47,16.43,.05,.94,.01,1.9,.21,2.82,.49,2.28,2.49,4.09,4.76,4.59s4.73-.23,6.53-1.71c3.43-2.83,3.66-7.79,5.85-11.47,.64-1.07,1.38-2.12,2.4-2.85s2.35-1.11,3.55-.72c1.63,.52,2.58,2.25,4.12,2.98,1.78,.84,4.16-.02,4.99-1.8,.52-1.12,.46-2.42,.73-3.62s1.07-2.49,2.31-2.56c.94-.05,1.75,.62,2.38,1.31,1.18,1.29,2.13,2.8,3.43,3.97s3.13,1.98,4.8,1.48c2.04-.61,3.05-2.82,4.33-4.53,1.51-2.03,4.31-3.62,6.51-2.37,.96,.55,1.59,1.53,2.33,2.35s1.81,1.55,2.9,1.3c1.32-.3,1.93-1.81,2.25-3.13,1.04-4.2,.32-10.13,4.02-13.16,1.85-1.51,4.97-1.62,6.4,.29,1.2,1.62,.79,3.86,.7,5.88-.09,1.86,.14,3.74,.67,5.53,.15,.48,.4,1.04,.9,1.11,.37,.05,.71-.19,.98-.44,3.43-3.11,3.67-8.29,4.38-12.87,.16-1.04,.37-2.11,.97-2.99,1.11-1.62,2.9-2.66,4.07-4.3,1.61-2.26,3.07-4.58,4.21-7.12,4.1-9.18,3.9-20.14-1.22-28.89-1.93-3.31-4.53-6.23-7.69-8.4-7.31-5.03-17.68-5.64-25.06-.72-3.51,2.34-6.19,5.72-8.51,9.23-3.06,4.65-5.63,9.78-6.31,15.3-.99,7.97,2.73,14.79,8.95,19.57"/>
      <path class="cls-5" d="M709.8,862.51s.84-18.21,18.96-20.8c0,0,20.06-3.23,26.85,6.15-3.09,3.94-6.18,7.88-9.28,11.8-.5-.5-1.02-1.02-1.65-1.35s-1.41-.45-2.06-.15c-.55,.25-.92,.77-1.25,1.27-.79,1.21-1.47,2.5-1.89,3.89-.75,2.49-.7,5.35-2.33,7.38-.52,.65-1.23,1.19-2.05,1.29-.46,.06-.93-.02-1.36-.18-1.4-.52-2.36-1.82-3.03-3.16s-1.14-2.78-2-4-2.25-2.22-3.74-2.08c-1.15,.11-2.06,.85-2.83,1.65-.21,.22-2.04,2.49-2.01,2.5,0,0-10.33-4.22-10.33-4.22Z"/>
      <ellipse class="cls-5" cx="684.33" cy="883.99" rx="3.45" ry=".43" transform="translate(-400.78 1152.84) rotate(-66.17)"/>
      <ellipse class="cls-5" cx="695.49" cy="886.49" rx=".43" ry="3.45" transform="translate(-396.42 1164.53) rotate(-66.17)"/>
      <ellipse class="cls-5" cx="698.12" cy="875.93" rx="3.45" ry=".43" transform="translate(-385.19 1160.65) rotate(-66.17)"/>
      <ellipse class="cls-5" cx="714.82" cy="872.87" rx="2.08" ry=".43" transform="translate(-372.44 1174.1) rotate(-66.17)"/>
      <ellipse class="cls-5" cx="710.32" cy="881.59" rx=".43" ry="3.45" transform="translate(-383.1 1175.18) rotate(-66.17)"/>
      <circle class="cls-5" cx="752.06" cy="870.19" r="2.59"/>
      <circle class="cls-5" cx="766.73" cy="878.81" r="2.59"/>
      <circle class="cls-5" cx="777.08" cy="867.6" r="2.59"/>
      <circle class="cls-5" cx="787.44" cy="875.36" r="2.59"/>
      <circle class="cls-5" cx="764.14" cy="858.97" r="2.59"/>
      <circle class="cls-5" cx="759.83" cy="848.61" r="2.59"/>
      <circle class="cls-5" cx="779.67" cy="855.52" r="2.59"/>
    </g>
    <g>
      <path class="cls-14" d="M551.68,621.14s-1.24,7.46,2.49,6.22c0,0,5.64,2.49,4.69-6.22l.29-63.43,37.31-54.73s-46.6,9.95-78.03,0l33.25,52.24v65.92Z"/>
      <path class="cls-9" d="M518.44,502.97c-3.74-3.52-7.53-8.12-8.65-13.21-.34-1.54-.42-3.19,.14-4.66,1.2-3.19,4.88-4.61,8.22-5.28,5.82-1.17,11.8-1.17,17.74-1.16,16.04,.02,32.09,.04,48.13,.06,5.34,0,10.81,.03,15.84,1.84,2.49,.89,5,2.41,5.93,4.88,1,2.67-.11,5.65-1.52,8.13-4.33,7.57-11.29,11.66-18.39,16.25,0,0-60.14-1.23-60.94-1.24-.61-.01-2.16-1.85-2.61-2.23-1.21-1.04-2.47-2.05-3.64-3.13-.08-.08-.17-.16-.26-.24Z"/>
      <path class="cls-9" d="M509.79,489.77s41.98,12.43,94.48,3.81"/>
      <path class="cls-14" d="M560.02,509.82c4.58-5.61,9.15-11.22,13.73-16.83,8.33-10.2,16.65-20.41,24.98-30.61,2.36-2.89,4.71-5.77,7.07-8.66,2.05-2.51,4.31-6.71,7.84-6.72,.51,0,1.04,.06,1.46,.34,.54,.35,.83,1,.83,1.65,0,1.51-1.84,3.2-2.76,4.36l-3.63,4.57c-3.45,4.34-6.9,8.67-10.35,13.01-7.75,9.74-15.5,19.48-23.25,29.21-2.9,3.65-5.8,7.29-8.71,10.94,0,0-7.21-1.24-7.21-1.24Z"/>
      <circle class="cls-14" cx="601.43" cy="464.42" r="9.33"/>
      <path class="cls-9" d="M554.79,616.79c-8.44,.74-17.9,1.85-25.42,6-1.55,.86-3.17,2.11-3.29,3.88-.07,1.11,.51,2.2,1.33,2.95s1.87,1.22,2.92,1.6c3.3,1.19,6.83,1.59,10.33,1.78,10.9,.58,24.01-.16,33.76-5.59,1.44-.8,2.84-1.81,3.61-3.26,.2-.37,.35-.8,.28-1.21-.07-.37-.31-.68-.55-.97-5.92-7.01-14.8-5.89-22.97-5.18Z"/>
    </g>
    <g>
      <path class="cls-9" d="M493.07,793.98c-.28-3.92-1.16-8.14-3.25-11.52-1.36-2.21-3.47-4.08-6.01-4.61-2.88-.61-5.81,.54-8.47,1.8-1.48,.7-2.97,1.48-4.18,2.56-.4,.36-.77,.76-1.09,1.19-.55,.75-.95,1.58-1.27,2.46s-.54,1.79-.75,2.7c-.67,2.91-1.22,5.92-.76,8.86,1.36,8.71,10.26,12,18.06,12,15.72,2.5,31.44,5,47.15,7.5,28.54,4.54,57.07,9.07,85.6,13.65,3.8,.61,7.66,1.22,11.47,.72,1.75-.23,3.62-.79,4.62-2.24,1.29-1.86,.66-4.43-.35-6.46-1.73-3.5-4.38-6.44-6.99-9.34-20.72-22.95-41.45-45.88-62.18-68.82-2.38-2.64-4.78-5.27-7.19-7.88-.36-.39-.74-.81-.84-1.33-.1-.53,.1-1.07,.25-1.59,1.35-4.7-1.71-9.91-6.13-12.01s-9.72-1.55-14.23,.35c-6.85,2.89-12.93,8.39-18.85,12.8-6.56,4.9-13.03,9.92-19.27,15.23-5.33,4.55-10.49,9.31-15.34,14.37-4.46,4.65-9.28,9.58-11.63,15.7v1.54"/>
      <path class="cls-9" d="M557.48,736.56c-12.91,3.44-25.42,9.95-36.07,17.92-6.69,5.01-12.73,10.95-17.56,17.78-5.23,7.39-9.05,15.83-10.72,24.72,16.38,1.31,32.73,2.53,49,4.93,7.35,1.08,14.69,2.34,21.89,4.2,2.89,.75,5.77,1.59,8.55,2.68,2.11,.82,4.12,1.69,5.97,3.01,1.61,1.15,2.34,3.15,2.9,5.01,1.21,3.99,1.38,8.5,3.97,11.94,.2,.27,.48,.55,.81,.53,.42-.03,.63-.51,.74-.91,.87-3.09,1.07-6.32,1.09-9.52,0-1.37,.11-2.77,.67-4.02s1.66-2.33,3.01-2.53c1.86-.28,3.59,1.13,4.55,2.75,1.11,1.89,1.89,4.08,2.79,6.08,1.11,2.47,2.22,4.95,3.33,7.42,1.28,2.86,2.7,5.89,5.35,7.57,.53,.34,1.2,.62,1.77,.35,.41-.19,.65-.62,.84-1.04,.83-1.9,.77-3.96,.69-5.99,0,0-4.02-21.05,14.7-17.44"/>
      <ellipse class="cls-5" cx="549.56" cy="757.53" rx="14.17" ry="12.58" transform="translate(-386.2 772.51) rotate(-54.96)"/>
      <ellipse class="cls-5" cx="528.37" cy="785.88" rx="14.25" ry="12.92" transform="translate(-418.43 767.23) rotate(-54.96)"/>
      <ellipse class="cls-5" cx="580.7" cy="783.45" rx="14.25" ry="12.92" transform="translate(-394.16 809.05) rotate(-54.96)"/>
    </g>
    <g>
      <path class="cls-14" d="M103.65,921.61c2.05-1.86,2.74-4.3,5.6-5.66s6.19-1.56,9.03-.23c-.2-.09,6.51-4.48,7.33-4.77,2.89-1.03,6.04-1.4,9.09-1.06,4.56,.51,8.8,2.92,13.3,3.82,5.04,1,10.09,1.66,14.47,4.58,4.51,3.02,7.66,8.79,5.91,13.93,2.26-.14,4.56-.28,6.78,.2s4.38,1.68,5.52,3.64c1.14,1.96,.97,4.75-.75,6.23,2.22,1.91,4.33,4.24,4.84,7.13s-1.28,6.32-4.19,6.62c2.91,3.99,5.21,8.42,6.8,13.1,.45,1.34,.83,2.9,.09,4.11-.64,1.05-1.99,1.51-3.22,1.43-1.8-.12-2.61-1.25-2.96,.67-.24,1.32,1.35,3.78,1.65,5.12,.81,3.54-.24,7.46-2.7,10.13s-6.29,4.02-9.89,3.48c1.81,3.87,.88,8.66-1.67,12.09s-6.47,5.63-10.57,6.85c-4.18,1.24-8.42,1.21-12.67,1.9-1.32,.21-2.94,.43-4.1,1.14-1.23,.76-1.93,2.17-3.22,2.88-.88,.49-1.92,.57-2.93,.63-4.77,.27-9.95,.11-13.76-2.77-.73-.55-1.4-1.19-2.21-1.61-1.12-.58-2.41-.69-3.67-.84-3.41-.4-6.84-1.15-9.85-2.81-3.01-1.66-5.58-4.32-6.58-7.6-.26-.85-.42-1.75-.94-2.47-.42-.58-1.04-.99-1.63-1.4-3.59-2.45-6.85-5.36-9.68-8.65-2.38-2.76-4.56-6.29-3.74-9.84,.18-.76,.49-1.51,.5-2.29,0-.72-.24-1.41-.48-2.09-1.96-5.61-3.48-11.42-3.7-17.36-.13-3.46,.43-7.4,3.25-9.4,.29-.21,.46-7.74,.75-8.8,.86-3.11,2.32-6.05,4.26-8.62,1.98-2.63,4.4-4.63,7.15-6.39s6.16-2.71,8.66-4.86c.05-.05,.1-.09,.16-.14Z"/>
      <ellipse class="cls-9" cx="130.81" cy="964.16" rx="57.89" ry="57.16"/>
      <ellipse class="cls-4" cx="137.4" cy="964.89" rx="24.92" ry="24.18"/>
      <ellipse class="cls-7" cx="96.36" cy="938.51" rx="5.13" ry="1.47" transform="translate(-832.58 773.72) rotate(-74.08)"/>
      <ellipse class="cls-7" cx="92.02" cy="952.55" rx="1.47" ry="5.13" transform="translate(-188.95 37.74) rotate(-11.56)"/>
      <ellipse class="cls-7" cx="108.56" cy="945.66" rx="1.47" ry="5.13" transform="translate(-830.6 790.63) rotate(-74.08)"/>
      <ellipse class="cls-7" cx="125.55" cy="921.93" rx="1.47" ry="5.13" transform="translate(-444.14 186.29) rotate(-30)"/>
      <ellipse class="cls-7" cx="140.21" cy="924.86" rx="1.47" ry="5.13" transform="translate(-443.65 194.01) rotate(-30)"/>
      <ellipse class="cls-7" cx="135.34" cy="997.68" rx="1.47" ry="5.13" transform="translate(-480.71 201.33) rotate(-30)"/>
      <ellipse class="cls-7" cx="167.58" cy="978.62" rx="1.47" ry="5.13" transform="translate(-466.86 214.9) rotate(-30)"/>
      <ellipse class="cls-7" cx="97.23" cy="965.43" rx="1.47" ry="5.13" transform="translate(-872.61 935.06) rotate(-82.46)"/>
      <ellipse class="cls-7" cx="104.85" cy="971.21" rx="5.13" ry="1.47" transform="translate(-656.04 358.6) rotate(-45)"/>
      <ellipse class="cls-7" cx="101.91" cy="982.93" rx="5.13" ry="1.47" transform="translate(-665.19 359.96) rotate(-45)"/>
      <ellipse class="cls-7" cx="105.96" cy="997.27" rx="5.13" ry="1.47" transform="translate(-674.15 367.02) rotate(-45)"/>
      <ellipse class="cls-7" cx="111.82" cy="985.55" rx="1.47" ry="5.13" transform="translate(-879.88 1004.05) rotate(-84.6)"/>
      <ellipse class="cls-7" cx="114.75" cy="995.81" rx="1.47" ry="5.13" transform="translate(-453.1 169.76) rotate(-27.93)"/>
      <ellipse class="cls-7" cx="120.99" cy="1006.18" rx="1.47" ry="5.13" transform="translate(-888.63 918.45) rotate(-78.18)"/>
      <ellipse class="cls-7" cx="156.75" cy="929.53" rx="5.13" ry="1.47" transform="translate(-679.78 494.99) rotate(-52.98)"/>
      <ellipse class="cls-7" cx="167.85" cy="949.97" rx="5.13" ry="1.47" transform="translate(-691.68 511.99) rotate(-52.98)"/>
      <ellipse class="cls-7" cx="133.73" cy="932.09" rx="5.13" ry="1.47" transform="translate(-690.97 477.63) rotate(-52.98)"/>
      <ellipse class="cls-7" cx="148.39" cy="933.55" rx="1.47" ry="5.13" transform="translate(-184.01 48.65) rotate(-11.56)"/>
      <ellipse class="cls-7" cx="110.28" cy="930.62" rx="5.13" ry="1.47" transform="translate(-699.13 458.33) rotate(-52.98)"/>
      <ellipse class="cls-7" cx="122.01" cy="930.62" rx="1.47" ry="5.13" transform="translate(-670.85 428.3) rotate(-50.17)"/>
      <ellipse class="cls-7" cx="174.93" cy="969" rx="5.13" ry="1.47" transform="translate(-275.06 93.18) rotate(-16.96)"/>
      <ellipse class="cls-7" cx="159.4" cy="990.85" rx="1.47" ry="5.13" transform="translate(-843.08 943.86) rotate(-78.18)"/>
      <ellipse class="cls-7" cx="171.13" cy="986.45" rx="1.47" ry="5.13" transform="translate(-829.46 951.84) rotate(-78.18)"/>
      <ellipse class="cls-7" cx="157.94" cy="999.64" rx="1.47" ry="5.13" transform="translate(-555.13 281.47) rotate(-35.82)"/>
      <ellipse class="cls-7" cx="139.75" cy="1012.4" rx="5.13" ry="1.47" transform="translate(-66 11.32) rotate(-3.75)"/>
    </g>
    <g>
      <path class="cls-9" d="M842.9,726c-.49-3.12-.98-6.27-.69-9.42s1.47-6.38,3.84-8.51c2.64-2.37,6.33-3.08,9.82-3.77,6.68-1.33,13.43-2.99,19.28-6.48,6.6-3.94,9.04-9.08,12.16-15.58,1.07-2.23,19.22,9.76,20.74,11.15,5.74,5.27,10.05,12.15,12.07,19.69,.21,.8,.41,1.62,.84,2.33,.48,.8,1.23,1.4,1.94,2,4.33,3.69,7.95,8.5,9.05,14.08,1.56,7.92-2.99,14.03-9.04,18.5h-85.04c-1.16,0-3.34-5.68-3.72-6.54-1.61-3.64-2.39-7.24-.55-11.02,1.72-3.54,5.4-6.04,9.32-6.35,0-.03,0-.06-.01-.09Z"/>
      <path class="cls-9" d="M842.68,724.57h55.49s20.15-1.38,21.95-11.47"/>
      <circle class="cls-5" cx="893.92" cy="703" r="2"/>
      <circle class="cls-5" cx="870.92" cy="739" r="2"/>
      <circle class="cls-5" cx="849.92" cy="735" r="2"/>
      <circle class="cls-5" cx="910.92" cy="739" r="2"/>
      <path class="cls-9" d="M837.87,750s11.04,46.68,10.04,57.34h65s5-54.34,10-57.34c0,0-72.09,1-85.04,0Z"/>
      <path class="cls-9" d="M854.64,749.77s5.28,34.23,4.28,39.23"/>
      <line class="cls-9" x1="874.34" y1="750.43" x2="874.34" y2="789"/>
      <path class="cls-9" d="M892.94,750.43s-6.03,31.57-4.03,39.57"/>
      <path class="cls-9" d="M910.92,750.43s-9,33.57-7,42.57"/>
    </g>
    <g>
      <path class="cls-9" d="M948.6,245.29c3.05-2.86,6.25-5.48,10.64-6.65,6.29-1.67,13.3,.02,18.34,4.13,11.59,9.44,10.65,28.46,19.98,40.05,4.83,6,12.08,5.17,17.17,10.66,2.85,3.08,4.67,6.99,5.92,11,1.33,4.25,2.09,8.81,1.09,13.15-1.11,4.84-4.32,9.01-8.2,12.11-9.29,7.42-21.58,8.24-32.3,12.49-5.56,2.2-10.58,5.35-14.29,10.12-4.07,5.23-5.64,12.4-12.25,15.33-3.02,1.34-6.45,1.41-9.73,1.07-6.67-.68-13.1-2.91-19.15-5.81-6.86-3.3-13.46-7.64-17.78-13.91-5.51-8-6.56-18.03-5.93-27.49,.2-3.01,1.11-5.89,.12-8.75-1.07-3.1-3.95-5.95-5.79-8.62-5-7.25-8.48-16.38-6.02-24.84,1.49-5.12,4.96-9.4,8.52-13.37,2.19-2.44,4.48-4.85,7.28-6.54,9.24-5.58,19.99-1.14,29.73-4.68,5.29-1.92,8.84-5.86,12.65-9.44Z"/>
      <circle class="cls-5" cx="949.63" cy="303.48" r="21.84"/>
      <path class="cls-13" d="M933.97,302.28s14.39-9.86,12.85-15.78"/>
    </g>
    <g>
      <path class="cls-9" d="M744.96,442.75c8.81,1.53,17.64,3.06,26.27,5.41,2.89,.79,5.82,1.69,8.28,3.41,.6,.42,1.2,.93,1.4,1.63,.5,1.72-1.53,3.03-3.2,3.68-20.41,7.92-40.82,15.84-61.23,23.77-5.1,1.98-10.2,3.96-15.31,5.94-1.92,.74-7.62,4.46-9.76,3.07-3.26-2.12,1.55-9.83,2.74-12.1,.53-1,1.1-1.98,1.61-2.99,4.53-8.89,9.06-17.79,13.59-26.68,.98-1.92,2.02-3.91,3.73-5.22,1.85-1.41,4.26-1.83,6.57-2.05,8.39-.78,16.81,.67,25.12,2.11,.06,0,.12,.02,.17,.03Z"/>
      <path class="cls-9" d="M691.41,489.66v40.03l87.5-16.68s4-1,4-6l-2.01-53.8"/>
      <path class="cls-9" d="M691.41,502.95c.68,2.46,2.5,4.51,5.23,3.71,1.35-.4,2.52-1.48,3.51-2.43,2.03-1.96,2-3.43,4.82-2.16,4.3,1.93,8.87,3.75,13.68,3.35,4.6-.38,8.93-2.86,11.8-6.47,.67-.84,1.29-1.77,2.22-2.33,1.71-1.02,4.79,.58,6.64,.85,3.02,.45,6.16,.46,9.01-.74,4.1-1.73,6.89-5.65,8.65-9.74,4.74,1.37,9.45,2.27,14.41,2.01,2.25-.12,4.55-.45,6.52-1.54,3.07-1.7,4.16-4.97,3.96-8.32"/>
      <circle class="cls-5" cx="734.92" cy="441" r="13"/>
      <path class="cls-9" d="M734.92,435.99s-2-15.99,8-17.99"/>
    </g>
    <g>
      <path class="cls-9" d="M664.94,684.98s-.02-.03-.04-.05c-1.03-1.03,8.51-14.4,9.49-15.74,3.81-5.2,8.14-10.04,13-14.29,9.59-8.4,21.23-14.32,33.85-16.39,16.41-2.7,33.78,.92,47.76,9.94,3.4,2.19,6.62,4.71,9.24,7.79,1.01,1.19,1.95,2.5,2.32,4.02,.42,1.76,.04,3.6-.46,5.34-4.57,16.07-18.02,28.27-32.78,36.08-4.03,2.13-8.24,4.02-12.68,5.08-4.45,1.06-9.07,1.27-13.65,1.23-10.46-.09-20.99-1.51-30.8-5.16s-18.83-9.63-25.26-17.85Z"/>
      <path class="cls-14" d="M689.16,662.96s-2.7,19.22,1.5,21.94"/>
      <path class="cls-14" d="M706.79,657s-3.95,19,1.13,29"/>
      <path class="cls-14" d="M724.73,653s-5.52,16,2.18,33"/>
      <path class="cls-9" d="M744.66,638.83s-6.86,38.16,12.7,56.67"/>
      <circle class="cls-5" cx="761.42" cy="657.5" r="4.5"/>
      <polygon class="cls-9" points="664.94 684.98 631.92 665 641.92 718 664.94 684.98"/>
    </g>
    <g>
      <g>
        <path class="cls-9" d="M65.06,375.22c-1.33-.74-2.74-1.31-4.34-1.37-.56-.02-1.14,.03-1.63,.3-.81,.44-1.21,1.41-1.24,2.32s.26,1.81,.55,2.69c.21,.63,.43,1.29,.91,1.75,.35,.33,.79,.52,1.23,.7,26.95,11.4,53.89,22.85,80.83,34.28,16.6,7.04,33.2,14.08,49.8,21.13,0,0,1-12,1-12-16.98-6.03-33.92-12.19-50.82-18.45-13.48-4.99-26.94-10.05-40.32-15.29-10.61-4.16-22.27-7.89-32.13-13.68-1.29-.76-2.53-1.66-3.84-2.38Z"/>
        <path class="cls-9" d="M192.17,435.84c8.26-5.91,16.51-11.83,24.77-17.74,16.26-11.65,32.52-23.3,48.78-34.95,7.15-5.12,14.29-10.24,21.44-15.36l7.89-5.65c1.94-1.39,4.98-2.87,6.53-4.63,.25-.28,.45-.61,.59-.96,.36-.87,.42-1.83,.45-2.77,.05-1.45,.07-2.92-.22-4.34-.22-1.12-.76-2.34-1.85-2.7-.5-.17-1.04-.12-1.56-.01-3.1,.68-6.18,3.66-8.81,5.51s-5.13,3.62-7.69,5.43c-7.17,5.08-14.34,10.17-21.49,15.27-16.26,11.61-32.5,23.27-48.48,35.26-4.94,3.71-9.89,7.44-14.67,11.36-1.1,.9-5.68,3.75-5.68,5.46,0,0,0,10.81,0,10.81Z"/>
        <path class="cls-5" d="M300.55,346.74c3.66,1.82-5.75-6.38-8.96-8.7-5.03-3.63-10.41-6.78-15.82-9.8-12.07-6.73-24.57-12.71-37.11-18.51-2.54-1.17-5.09-2.34-7.76-3.17-2.05-.64-4.15-1.09-6.24-1.58-15.2-3.63-30.04-10.35-43.66-17.95-7.17-4-9.83,0-9.83,0l-109,76c-7,6-4.32,13.46-4.32,13.46,0,0-.23-8.29,11.05,1.12l123.27,47.42s101.76-81.57,108.38-78.29Z"/>
        <path class="cls-13" d="M73.17,357.03s-3,1.43,0,3.21l5,2.79s3,2,4,0l5-5s2-1-1-3l-5-3s-1-1-3,1l-5,4Z"/>
        <path class="cls-13" d="M95.29,340.72s-2.64,1.26,0,2.83l4.4,2.45s2.64,1.76,3.52,0l4.4-4.4s1.76-.88-.88-2.64l-4.4-2.64s-.88-.88-2.64,.88l-4.4,3.52Z"/>
        <path class="cls-13" d="M115.93,327.52s-2.3,.92,0,2.06l3.83,1.79s2.3,1.28,3.07,0l3.83-3.21s1.53-.64-.77-1.93l-3.83-1.93s-.77-.64-2.3,.64l-3.83,2.57Z"/>
        <path class="cls-13" d="M135.43,314.01s-1.99,.95,0,2.14l3.32,1.85s1.99,1.33,2.66,0l3.32-3.32s1.33-.66-.66-1.99l-3.32-1.99s-.66-.66-1.99,.66l-3.32,2.66Z"/>
        <path class="cls-13" d="M169.36,354.65s-3,1.43,0,3.21l5,2.79s3,2,4,0l5-5s2-1-1-3l-5-3s-1-1-3,1l-5,4Z"/>
        <path class="cls-13" d="M146.19,356.21s-2.39,1.14,0,2.56l3.98,2.22s2.39,1.59,3.19,0l3.98-3.98s1.59-.8-.8-2.39l-3.98-2.39s-.8-.8-2.39,.8l-3.98,3.19Z"/>
        <path class="cls-13" d="M124.08,357.78s-2.14,1.02,0,2.3l3.57,1.99s2.14,1.43,2.86,0l3.57-3.57s1.43-.71-.71-2.14l-3.57-2.14s-.71-.71-2.14,.71l-3.57,2.86Z"/>
        <path class="cls-13" d="M184.82,396.66s-2.12,1.01,0,2.27l3.53,1.97s2.12,1.41,2.82,0l3.53-3.53s1.41-.71-.71-2.12l-3.53-2.12s-.71-.71-2.12,.71l-3.53,2.82Z"/>
        <path class="cls-13" d="M174.72,370.56s-2.12,1.01,0,2.27l3.53,1.97s2.12,1.41,2.82,0l3.53-3.53s1.41-.71-.71-2.12l-3.53-2.12s-.71-.71-2.12,.71l-3.53,2.82Z"/>
        <path class="cls-13" d="M162.46,328.21s-2.6,1.24,0,2.79l4.34,2.42s2.6,1.73,3.47,0l4.34-4.34s1.73-.87-.87-2.6l-4.34-2.6s-.87-.87-2.6,.87l-4.34,3.47Z"/>
        <path class="cls-13" d="M201.92,382.46s-2.51,1.19,0,2.69l4.18,2.33s2.51,1.67,3.34,0l4.18-4.18s1.67-.84-.84-2.51l-4.18-2.51s-.84-.84-2.51,.84l-4.18,3.34Z"/>
        <path class="cls-13" d="M224.58,381.02s-3.8,1.33-.41,3.87l5.66,4s3.35,2.8,4.82,.52l6.67-5.38s2.54-.95-.82-3.74l-5.63-4.26s-1.08-1.33-3.74,.82l-6.54,4.17Z"/>
        <path class="cls-13" d="M143.72,342.71s-2.75,1.31,0,2.95l4.58,2.55s2.75,1.83,3.67,0l4.58-4.58s1.83-.92-.92-2.75l-4.58-2.75s-.92-.92-2.75,.92l-4.58,3.67Z"/>
        <path class="cls-13" d="M165.89,340.49s-2.41,1.15,0,2.58l4.02,2.24s2.41,1.61,3.21,0l4.02-4.02s1.61-.8-.8-2.41l-4.02-2.41s-.8-.8-2.41,.8l-4.02,3.21Z"/>
        <path class="cls-13" d="M184,327.93s-2.66,1.27,0,2.85l4.43,2.47s2.66,1.77,3.54,0l4.43-4.43s1.77-.89-.89-2.66l-4.43-2.66s-.89-.89-2.66,.89l-4.43,3.54Z"/>
        <path class="cls-13" d="M213.89,341.49s-2.41,1.15,0,2.58l4.02,2.24s2.41,1.61,3.21,0l4.02-4.02s1.61-.8-.8-2.41l-4.02-2.41s-.8-.8-2.41,.8l-4.02,3.21Z"/>
        <path class="cls-13" d="M103.76,370.98s-2.12,1.01,0,2.27l3.53,1.97s2.12,1.41,2.82,0l3.53-3.53s1.41-.71-.71-2.12l-3.53-2.12s-.71-.71-2.12,.71l-3.53,2.82Z"/>
        <path class="cls-13" d="M156.76,382.98s-2.12,1.01,0,2.27l3.53,1.97s2.12,1.41,2.82,0l3.53-3.53s1.41-.71-.71-2.12l-3.53-2.12s-.71-.71-2.12,.71l-3.53,2.82Z"/>
        <path class="cls-13" d="M125.76,370.98s-2.12,1.01,0,2.27l3.53,1.97s2.12,1.41,2.82,0l3.53-3.53s1.41-.71-.71-2.12l-3.53-2.12s-.71-.71-2.12,.71l-3.53,2.82Z"/>
        <path class="cls-13" d="M74.09,372.93c.08-.07,.17-.14,.25-.21,1.82-1.48,3.52-3.11,5.07-4.88,.38-.44,.76-.89,1.26-1.19,.95-.59,2.19-.54,3.24-.15,1.3,.49,2.41,1.45,3.61,2.12,1.42,.79,2.81,1.63,4.21,2.45,1.14,.66,3.26,1.55,3.14,3.12-.06,.74-.68,1.29-1.25,1.76-2.15,1.75-4.3,3.5-6.45,5.25-.6,.49-1.22,.99-1.96,1.21-1.54,.47-3.16-.35-4.57-1.14-1.87-1.05-3.75-2.11-5.62-3.16-.59-.33-1.19-.67-1.66-1.15s-.82-1.13-.77-1.81c.06-.93,.79-1.63,1.52-2.23Z"/>
        <path class="cls-13" d="M150.33,369.3c.06-.05,.11-.09,.17-.14,1.21-.99,2.34-2.07,3.37-3.25,.25-.29,.51-.59,.84-.79,.63-.39,1.46-.36,2.15-.1,.87,.33,1.6,.96,2.4,1.41,.94,.53,1.87,1.09,2.81,1.63,.76,.44,2.17,1.03,2.09,2.08-.04,.49-.45,.86-.84,1.17-1.43,1.17-2.86,2.33-4.3,3.5-.4,.33-.81,.66-1.31,.81-1.03,.31-2.1-.23-3.04-.76-1.25-.7-2.5-1.4-3.74-2.1-.39-.22-.79-.44-1.11-.77s-.54-.75-.52-1.2c.04-.62,.52-1.08,1.01-1.49Z"/>
        <path class="cls-13" d="M196.54,367.43c.07-.06,.14-.11,.2-.17,1.46-1.19,2.83-2.5,4.08-3.92,.31-.35,.61-.71,1.01-.96,.76-.47,1.76-.44,2.6-.12,1.05,.39,1.94,1.16,2.9,1.7,1.14,.64,2.26,1.31,3.39,1.97,.91,.53,2.62,1.25,2.52,2.51-.05,.6-.55,1.04-1.01,1.42-1.73,1.41-3.46,2.82-5.19,4.22-.48,.39-.98,.79-1.58,.98-1.24,.38-2.54-.28-3.67-.91-1.51-.85-3.02-1.69-4.52-2.54-.47-.27-.95-.54-1.33-.92s-.66-.91-.62-1.45c.05-.74,.63-1.31,1.22-1.8Z"/>
        <path class="cls-13" d="M154.25,300.53c.06-.05,.11-.09,.17-.14,1.22-.99,2.36-2.09,3.39-3.27,.26-.29,.51-.59,.84-.8,.64-.39,1.47-.36,2.17-.1,.87,.33,1.61,.97,2.42,1.42,.95,.53,1.88,1.09,2.82,1.64,.76,.44,2.18,1.04,2.1,2.09-.04,.5-.45,.87-.84,1.18-1.44,1.17-2.88,2.35-4.32,3.52-.4,.33-.82,.66-1.31,.81-1.03,.32-2.12-.23-3.06-.76-1.26-.71-2.51-1.41-3.77-2.12-.39-.22-.79-.45-1.11-.77s-.55-.76-.52-1.21c.04-.62,.53-1.09,1.02-1.5Z"/>
        <path class="cls-13" d="M180.34,313c.06-.05,.12-.1,.18-.15,1.33-1.08,2.57-2.27,3.7-3.56,.28-.32,.56-.65,.92-.87,.69-.43,1.6-.4,2.36-.11,.95,.36,1.76,1.06,2.64,1.55,1.03,.58,2.05,1.19,3.08,1.79,.83,.48,2.38,1.13,2.29,2.28-.04,.54-.5,.94-.92,1.29-1.57,1.28-3.14,2.56-4.71,3.84-.44,.36-.89,.72-1.43,.89-1.13,.34-2.31-.25-3.33-.83-1.37-.77-2.74-1.54-4.11-2.31-.43-.24-.87-.49-1.21-.84s-.6-.83-.56-1.32c.04-.68,.57-1.19,1.11-1.63Z"/>
        <path class="cls-13" d="M235.52,338.92c.06-.05,.13-.11,.19-.16,1.37-1.12,2.65-2.35,3.82-3.67,.29-.33,.58-.67,.95-.9,.72-.44,1.65-.41,2.44-.11,.98,.37,1.81,1.09,2.72,1.6,1.07,.6,2.12,1.23,3.17,1.84,.86,.5,2.45,1.17,2.36,2.35-.04,.56-.51,.97-.94,1.33-1.62,1.32-3.24,2.64-4.86,3.96-.45,.37-.92,.74-1.48,.91-1.16,.35-2.38-.26-3.44-.86-1.41-.79-2.82-1.59-4.23-2.38-.44-.25-.89-.5-1.25-.87s-.61-.85-.58-1.36c.04-.7,.59-1.22,1.14-1.68Z"/>
        <path class="cls-13" d="M195.25,353.65s.1-.08,.15-.12c1.04-.85,2.02-1.79,2.91-2.8,.22-.25,.44-.51,.72-.68,.55-.34,1.26-.31,1.86-.09,.75,.28,1.38,.83,2.07,1.22,.81,.46,1.61,.94,2.42,1.4,.65,.38,1.87,.89,1.8,1.79-.03,.42-.39,.74-.72,1.01-1.23,1-2.47,2.01-3.7,3.01-.34,.28-.7,.57-1.12,.7-.89,.27-1.81-.2-2.62-.65-1.08-.6-2.15-1.21-3.23-1.81-.34-.19-.68-.38-.95-.66s-.47-.65-.44-1.04c.03-.53,.45-.93,.87-1.28Z"/>
        <path class="cls-13" d="M167.25,409.55c.06-.05,.11-.09,.17-.14,1.22-.99,2.36-2.09,3.39-3.27,.26-.29,.51-.59,.84-.8,.64-.39,1.47-.36,2.17-.1,.87,.33,1.61,.97,2.42,1.42,.95,.53,1.88,1.09,2.82,1.64,.76,.44,2.18,1.04,2.1,2.09-.04,.5-.45,.87-.84,1.18-1.44,1.17-2.88,2.35-4.32,3.52-.4,.33-.82,.66-1.31,.81-1.03,.32-2.12-.23-3.06-.76-1.26-.71-2.51-1.41-3.77-2.12-.39-.22-.79-.45-1.11-.77s-.55-.76-.52-1.21c.04-.62,.53-1.09,1.02-1.5Z"/>
        <path class="cls-13" d="M180.75,412.37c.08-.07,.17-.14,.25-.21,1.82-1.48,3.52-3.11,5.07-4.88,.38-.44,.76-.89,1.26-1.19,.95-.59,2.19-.54,3.24-.15,1.3,.49,2.41,1.45,3.61,2.12,1.42,.79,2.81,1.63,4.21,2.45,1.14,.66,3.26,1.55,3.14,3.12-.06,.74-.68,1.29-1.25,1.76-2.15,1.75-4.3,3.5-6.45,5.25-.6,.49-1.22,.99-1.96,1.21-1.54,.47-3.16-.35-4.57-1.14-1.87-1.05-3.75-2.11-5.62-3.16-.59-.33-1.19-.67-1.66-1.15s-.82-1.13-.77-1.81c.06-.93,.79-1.63,1.52-2.23Z"/>
        <path class="cls-13" d="M204.17,312.03l9-6s3-2,5-1l4.41,1.95s4.59,1.05,.59,4.05l-10,7s-2,3-6,0l-4-3s-1-2,1-3Z"/>
        <path class="cls-13" d="M234.65,323.41l9-6s3-2,5-1l4.41,1.95s4.59,1.05,.59,4.05l-10,7s-2,3-6,0l-4-3s-1-2,1-3Z"/>
        <path class="cls-13" d="M260.26,337.24l7.87-5.25s2.62-1.75,4.37-.87l3.86,1.71s4.02,.92,.52,3.54l-8.75,6.12s-1.75,2.62-5.25,0l-3.5-2.62s-.87-1.75,.87-2.62Z"/>
        <path class="cls-13" d="M177.52,299.55l7.94-5.29s2.65-1.76,4.41-.88l3.89,1.72s4.05,.93,.52,3.57l-8.82,6.18s-1.76,2.65-5.29,0l-3.53-2.65s-.88-1.76,.88-2.65Z"/>
        <path class="cls-13" d="M135.27,399.03l6.13-4.09s2.04-1.36,3.41-.68l3,1.33s3.13,.72,.4,2.76l-6.81,4.77s-1.36,2.04-4.09,0l-2.73-2.04s-.68-1.36,.68-2.04Z"/>
        <path class="cls-13" d="M106.62,385.12s-2.71,1.39,0,3.12l4.51,2.7s2.71,1.94,3.61,0l4.51-4.85s1.8-.97-.9-2.91l-4.51-2.91s-.9-.97-2.71,.97l-4.51,3.88Z"/>
        <path class="cls-13" d="M94.87,354.3l3.5-2.53s1.8-1.75,3.8-.75l10,6s3,1,1,3l-3,3s-2,3-5,0l-10-6s-1.6-1.45-.3-2.72Z"/>
        <path class="cls-13" d="M116.72,340.45l3.03-2.19s1.56-1.52,3.29-.65l8.66,5.2s2.6,.87,.87,2.6l-2.6,2.6s-1.73,2.6-4.33,0l-8.66-5.2s-1.39-1.25-.26-2.36Z"/>
        <path class="cls-13" d="M135.47,326.64l3.08-2.22s1.58-1.54,3.34-.66l8.79,5.28s2.64,.88,.88,2.64l-2.64,2.64s-1.76,2.64-4.4,0l-8.79-5.28s-1.41-1.27-.26-2.4Z"/>
        <path class="cls-13" d="M155.91,311.57l2.81-2.12s1.45-1.47,3.05-.63l8.04,5.05s2.41,.84,.8,2.52l-2.41,2.52s-1.61,2.52-4.02,0l-8.04-5.05s-1.29-1.22-.24-2.29Z"/>
        <path class="cls-13" d="M207.06,324.42l2.6-1.91s1.34-1.32,2.82-.57l7.43,4.54s2.23,.76,.74,2.27l-2.23,2.27s-1.49,2.27-3.72,0l-7.43-4.54s-1.19-1.1-.22-2.06Z"/>
        <path class="cls-13" d="M189.06,337.68l2.6-2.1s1.34-1.45,2.82-.62l7.43,4.98s2.23,.83,.74,2.49l-2.23,2.49s-1.49,2.49-3.72,0l-7.43-4.98s-1.19-1.2-.22-2.26Z"/>
        <path class="cls-13" d="M215.85,352.83l2.45-1.81s1.26-1.25,2.66-.54l7.01,4.29s2.1,.72,.7,2.15l-2.1,2.15s-1.4,2.15-3.51,0l-7.01-4.29s-1.12-1.04-.21-1.95Z"/>
        <path class="cls-13" d="M238.85,350.83l2.45-1.81s1.26-1.25,2.66-.54l7.01,4.29s2.1,.72,.7,2.15l-2.1,2.15s-1.4,2.15-3.51,0l-7.01-4.29s-1.12-1.04-.21-1.95Z"/>
        <path class="cls-13" d="M221.9,364.65l2.81-1.85s1.45-1.28,3.05-.55l8.04,4.4s2.41,.73,.8,2.2l-2.41,2.2s-1.61,2.2-4.02,0l-8.04-4.4s-1.29-1.06-.24-2Z"/>
        <path class="cls-13" d="M244.36,364.77l3.1-2.24s1.59-1.55,3.36-.66l8.85,5.31s2.66,.89,.89,2.66l-2.66,2.66s-1.77,2.66-4.43,0l-8.85-5.31s-1.42-1.28-.27-2.41Z"/>
        <path class="cls-13" d="M263,350.05l3.5-2.53s1.8-1.75,3.8-.75l10,6s3,1,1,3l-3,3s-2,3-5,0l-10-6s-1.6-1.45-.3-2.72Z"/>
        <path class="cls-13" d="M130.06,383.87c.06-.05,.11-.09,.17-.14,1.21-.99,2.34-2.07,3.37-3.25,.25-.29,.51-.59,.84-.79,.63-.39,1.46-.36,2.15-.1,.87,.33,1.6,.96,2.4,1.41,.94,.53,1.87,1.09,2.81,1.63,.76,.44,2.17,1.03,2.09,2.08-.04,.49-.45,.86-.84,1.17-1.43,1.17-2.86,2.33-4.3,3.5-.4,.33-.81,.66-1.31,.81-1.03,.31-2.1-.23-3.04-.76-1.25-.7-2.5-1.4-3.74-2.1-.39-.22-.79-.44-1.11-.77s-.54-.75-.52-1.2c.04-.62,.52-1.08,1.01-1.49Z"/>
        <path class="cls-13" d="M177.06,382.87c.06-.05,.11-.09,.17-.14,1.21-.99,2.34-2.07,3.37-3.25,.25-.29,.51-.59,.84-.79,.63-.39,1.46-.36,2.15-.1,.87,.33,1.6,.96,2.4,1.41,.94,.53,1.87,1.09,2.81,1.63,.76,.44,2.17,1.03,2.09,2.08-.04,.49-.45,.86-.84,1.17-1.43,1.17-2.86,2.33-4.3,3.5-.4,.33-.81,.66-1.31,.81-1.03,.31-2.1-.23-3.04-.76-1.25-.7-2.5-1.4-3.74-2.1-.39-.22-.79-.44-1.11-.77s-.54-.75-.52-1.2c.04-.62,.52-1.08,1.01-1.49Z"/>
        <path class="cls-13" d="M205.19,396.38l2.81-1.85s1.45-1.28,3.05-.55l8.04,4.4s2.41,.73,.8,2.2l-2.41,2.2s-1.61,2.2-4.02,0l-8.04-4.4s-1.29-1.06-.24-2Z"/>
        <path class="cls-13" d="M158.19,396.38l2.81-1.85s1.45-1.28,3.05-.55l8.04,4.4s2.41,.73,.8,2.2l-2.41,2.2s-1.61,2.2-4.02,0l-8.04-4.4s-1.29-1.06-.24-2Z"/>
      </g>
      <path class="cls-9" d="M148.14,272.81c.15,1.93-3.98,3.81-9.21,4.2s-9.59-.85-9.74-2.78c-.06-.84,.68-1.67,1.98-2.38,1.68-.91,4.28-1.61,7.23-1.83,5.23-.39,9.59,.85,9.74,2.78Z"/>
      <path class="cls-9" d="M133.17,249.03s-.25,20.22-3.13,23.61"/>
      <path class="cls-9" d="M139.8,249.03s3.6,18.84,6.48,21.92"/>
      <circle class="cls-9" cx="136.67" cy="242.53" r="7.5"/>
      <path class="cls-9" d="M112.14,312.81c.15,1.93-3.98,3.81-9.21,4.2s-9.59-.85-9.74-2.78c-.06-.84,.68-1.67,1.98-2.38,1.68-.91,4.28-1.61,7.23-1.83,5.23-.39,9.59,.85,9.74,2.78Z"/>
      <path class="cls-9" d="M97.17,289.03s-.25,20.22-3.13,23.61"/>
      <path class="cls-9" d="M103.8,289.03s3.6,18.84,6.48,21.92"/>
      <circle class="cls-9" cx="100.67" cy="282.53" r="7.5"/>
    </g>
    <g>
      <path class="cls-9" d="M808.74,58h29.01c-.43,0-.66,22.5-.66,24.3,0,3.58-.05,7.44,.03,11.37,.18,8.56,1.07,17.44,4.93,24.47,2.29,4.17,5.72,7.63,8.15,11.72,3.56,5.99,4.82,13.07,5.22,20.03,.56,9.66,.49,19.44,.49,29.11,0,0,.21,108.84,.21,108.84,0,0,2.79,19.16-29.21,19.16,0,0-32,3-32-15-.31-17.28-.62-34.56-.93-51.84-.43-24.25-1.35-48.53-1.54-72.77-.1-12.52-.09-27.5,6.08-38.74,1.94-3.54,4.54-6.68,6.51-10.2,3.69-6.59,5-13.99,5.39-21.5,.04-.73,.07-1.45,.09-2.18,.15-5.14-.07-10.3-.2-15.27-.05-1.84-.6-21.5-1.57-21.5Z"/>
      <path class="cls-9" d="M810.43,96.94s19.91-5.6,26.7-3.27"/>
      <path class="cls-9" d="M792.43,182.59s13.49,16.41,63.49-3.59"/>
      <path class="cls-9" d="M794.54,270.85s20.38,23.85,61.38,0"/>
      <line class="cls-2" x1="807.92" y1="60" x2="838.92" y2="60"/>
    </g>
    <g>
      <path class="cls-9" d="M160.2,137.59c-11.56,4.7-23.96,7.28-36.36,6.43-4.08-.28-8.54-1.15-11.1-4.35-3.09-3.86-2.18-9.47-.83-14.23,2.45-8.67,5.85-17.07,10.11-25.01,3.66-6.81,8-13.34,13.64-18.63,5.64-5.29,12.67-9.29,20.31-10.44,9.78-1.48,19.72,1.76,28.43,6.44,5.65,3.04,10.94,6.68,16.28,10.21,3.61,2.38,10.51,4.86,11.11,9.82,.87,7.25-9.93,12.7-14.54,16.51-8.19,6.78-16.85,13.06-26.22,18.12-3.51,1.9-7.13,3.62-10.84,5.13Z"/>
      <path class="cls-9" d="M160.2,137.59c1.81,11.86,2.26,23.29,1.39,35.24-.52,7.08,3.49,15.28,7.69,20.79,2.7,3.55,6.35,6.51,10.65,7.71,3.91,1.09,8.12,.65,12-.55,6.72-2.09,12.68-6.51,16.64-12.33,2.38-3.51,4.07-7.62,4.01-11.87-.09-6.97-4.74-13.04-9.89-17.74-5.15-4.71-10.42-8.85-14.96-14.18-3.53-4.14-10.26-9.87-10.43-15.82"/>
      <path class="cls-5" d="M129.87,144.17c5-24.08-12.97-32.99-12.97-32.99,0,0-8.86,22.86-4.92,27.34l3.74,3.56"/>
      <path class="cls-5" d="M125.62,94.23s14.6,12.6,23.81,4.93c0,0,14.61-9.17-1.91-25.31"/>
      <path class="cls-5" d="M174.48,73.85c-.64,2.8-.86,5.91-.55,8.76,.26,2.42,1.1,4.84,2.77,6.61,1.13,1.2,2.58,2.03,4.05,2.78,2.19,1.12,4.49,2.07,6.92,2.45,5.53,.85,10.71-1.57,14.41-5.59"/>
      <path class="cls-5" d="M167.42,134.34c-3.16-1.04-6.22-2.5-9.05-4.25-3.5-2.16-6.98-4.86-8.56-8.79s-1.08-8.91,1.62-12.09c1.66-1.95,4.07-3.13,6.55-3.75,5.16-1.28,11.59-1.49,15.75,2.36,5.16,4.76,5.18,13.42,4.64,19.86"/>
      <path class="cls-5" d="M128.92,92s12-15,17-16"/>
      <line class="cls-5" x1="176.92" y1="76" x2="191.92" y2="83"/>
    </g>
    <g>
      <path class="cls-9" d="M514.12,96.13h-28.2c-4.97,0-10.06-.54-15-.08-3.08,.29-6.17,1.19-8.75,3.1-1.51,1.12-2.92,2.86-2.78,4.88,.09,1.42,.94,2.63,1.83,3.64,5.31,5.98,11.03,4.75,17.87,4.67l24.37-.28c7.94-.09,15.86-.45,23.82-.23,8.29,.23,20.86,2.64,27.8-3.42,1.34-1.17,2.72-2.63,2.83-4.52,.08-1.42-.59-2.78-1.45-3.83-2.28-2.77-5.82-3.81-9.19-4-10.97-.62-22.16,.07-33.16,.07Z"/>
      <path class="cls-5" d="M504.64,131.72v-59.63l25.85-23.08s6.89,3.85,6.03,7.69l-22.4,21.16-.86,61.56-8.62-7.69Z"/>
      <polyline class="cls-9" points="470.3 112.5 481.38 220.2 536.59 220.2 549.66 111.33"/>
      <path class="cls-9" d="M471.83,127.42c7.48-8,21.08-1.38,28.49,3.24,6.69,4.17,12.94,9.21,18.6,14.98,3.6,3.68,7.04,7.71,11.4,10.16,3.84,2.16,11.24,3.69,14.13-1"/>
      <polyline class="cls-10" points="517.56 209.62 529.52 209.62 533.93 167.3"/>
    </g>
    <g>
      <path class="cls-9" d="M245.3,795.8c.28-3.89-1.02-7.72-3.85-10.45-.73-.7-1.53-1.31-2.39-1.84-1.67-1.02-3.56-1.71-5.49-2.05-2.12-.38-4.37-.34-6.37,.46-2.58,1.03-4.55,3.25-5.78,5.74s-1.82,5.25-2.28,7.99c-2.16,1.1-4.42,2.58-5.07,4.92-.42,1.51-.08,3.15,.62,4.55,1.02,2.03,2.7,3.87,4.47,5.28,0,0,23.81,0,23.81,0,.09,5.57,.27,11.14,.24,16.72,0,.99-.02,2,.31,2.94,.87,2.53,4.17,4.32,6.67,4.78,3.81,.69,6.9-1.6,9.07-4.49"/>
      <path class="cls-9" d="M239.05,783.51c2.04-3.66,4.99-7.12,8.34-9.64,2.76-2.07,6.08-3.51,9.53-3.61,3.35-.1,6.64,1.06,9.57,2.7,3.26,1.83,6.34,4.55,7.74,8.1,.33,.85,.57,1.74,.67,2.65,.07,.62-.35,2.59-.08,3.01,.35,.56,2.3,.61,2.99,.77,3.44,.84,7.64,2.21,9.68,5.32,1.01,1.55,1.38,3.44,1.48,5.29,.14,2.72-.3,5.55-1.73,7.87-2.65,4.3-7.9,4.83-12.47,4.07,.4,.07,0,15.36,0,16.81,0,2.71-.11,5.42-.07,8.13,.06,3.45,.56,6.55-2.11,9.28-1.83,1.87-4.62,2.77-7.19,2.28s-4.85-2.35-5.79-4.8c-.83-2.16-.53-4.36-.44-6.6,.11-2.56,.05-5.15,.07-7.71,.05-5.33,.09-10.66,.13-15.99"/>
      <polyline class="cls-9" points="219.15 810.4 219.15 900.76 283.16 901 283.16 809.43"/>
      <line class="cls-9" x1="219.15" y1="886.59" x2="283.16" y2="887.45"/>
      <path class="cls-9" d="M283.16,820.26c6.04,.12,15.5-1.54,19.65,4.05,1.99,2.67,2.07,6.26,2.07,9.59,0,8.92,.02,17.84,.02,26.76,0,5.42-.24,11.47-4.13,15.25-4.43,4.31-12.01,2.52-17.62,2.52"/>
    </g>
    <g>
      <path class="cls-9" d="M923.07,931.89v-35.87c0-17.67-2.83-37.92,6.14-53.89,3.76-6.7,9.68-12.41,16.98-14.79,6.22-2.03,13.02-1.54,19.36,.08,7.44,1.91,14.62,5.46,19.82,11.11,11.4,12.37,7.17,36.14,7.17,51.88v38.68s3.16,21.75-23.69,20.17l-27.64,.08s-18.15,1.5-18.15-17.45Z"/>
      <path class="cls-14" d="M951.46,863.12c2.14,6.89,.76,18.41,.62,23.01-.31,10.29-.61,20.58-.92,30.88-.05,1.72-.11,3.48-.69,5.07-.97,2.67-3.33,3.71-5.7,3.45-2.64-.29-4.98-2.67-5.64-5.63-.28-1.26-.28-2.57-.28-3.87,0-15.73-.02-31.46-.02-47.19,0-1.95,0-3.94,.56-5.78,.99-3.26,3.94-5.71,6.92-5.36,2.63,.31,4.22,2.43,5.15,5.41Z"/>
      <path class="cls-14" d="M975.28,862.42c2.14,6.89,.76,18.41,.62,23.01-.31,10.29-.61,20.58-.92,30.88-.05,1.72-.11,3.48-.69,5.07-.97,2.67-3.33,3.71-5.7,3.45-2.64-.29-4.98-2.67-5.64-5.63-.28-1.26-.28-2.57-.28-3.87,0-15.73-.02-31.46-.02-47.19,0-1.95,0-3.94,.56-5.78,.99-3.26,3.94-5.71,6.92-5.36,2.63,.31,4.22,2.43,5.15,5.41Z"/>
      <path class="cls-9" d="M947.32,949.37c0,18.12,.04,36.24-.06,54.36,0,1.14,0,2.3,.3,3.39,1.98,6.96,13.38,9.26,17.65,4.01,2.17-2.67,2.49-6.58,2.28-10.15-1-17.06-.2-34.47-.2-51.61"/>
    </g>
    <g>
      <path class="cls-5" d="M383.59,374.7c.62-1.04,1.19-2.07,1.76-2.87,2.05-2.89,4.46-5.5,7.15-7.81,5.32-4.57,11.68-7.91,18.42-9.8,11.36-3.18,23.66-2.36,34.85,1.4,5.41,1.81,10.63,4.41,15.04,8.06,2.25,1.87,4.29,4,5.96,6.4s2.68,5.32,4.83,7.39c1.24,1.19,2.89,2.05,4.61,2.01,1.8-.05,3.49-1.1,4.55-2.55,.82-1.12,1.3-2.54,1.08-3.92-.66-4.06-5.32-8.43-8.08-11.3-3.3-3.43-7-6.49-10.97-9.12-7.95-5.26-17.04-8.81-26.46-10.28-3.48-.54-7.01-.8-10.54-.75-18.8,.25-37.31,9.14-49.31,23.6-1.69,2.04-3.23,4.52-3.93,7.11-.27,.99-.4,2.06-.08,3.04,.31,.93,1,1.69,1.75,2.32,1.42,1.19,3.34,2.06,5.1,1.49,1.81-.59,3.13-2.52,4.27-4.42Z"/>
      <path class="cls-9" d="M375.01,375l2.77,1.85s-9.69,19.85,1.38,51.7c0,0-5.54-12.46,10.62-16.16,0,0,13.26,41.15,13.39,41.54,.27,.84-4.07,1.29-4.52,1.35-2.29,.3-4.62,.65-6.84-.23-2.14-.85-3.96-2.49-5.03-4.54-.62-1.18-1.07-2.52-2.55-2.69s-2.73,.17-3.81-1.02c-1-1.1-1.47-2.56-1.92-3.98-.99-3.1-1.98-6.2-2.97-9.3-.44-1.37-.77-3.12,.34-4.03,.51-.42-2.97-10.13-3.28-11.46-1.55-6.65-2.69-13.54-2.81-20.38-.13-7.48,.97-16.33,5.24-22.66Z"/>
      <path class="cls-9" d="M478.27,375.85l-2.75,1.85s9.64,19.85-1.38,51.7c0,0,5.51-12.46-10.56-16.16,0,0-13.19,41.15-13.31,41.54-.27,.84,4.05,1.29,4.5,1.35,2.28,.3,4.6,.65,6.8-.23,2.13-.85,3.94-2.49,5-4.54,.61-1.18,1.07-2.52,2.54-2.69s2.72,.17,3.79-1.02c.99-1.1,1.46-2.56,1.91-3.98,.98-3.1,1.97-6.2,2.95-9.3,.43-1.37,.77-3.12-.34-4.03-.51-.42,2.96-10.13,3.27-11.46,1.55-6.65,2.68-13.54,2.79-20.38,.13-7.48-.96-16.33-5.21-22.66Z"/>
      <path class="cls-5" d="M463.58,413.24c.57-1.94,.43-4.39-1.44-5.56-.79-.5-1.71-.74-2.62-.97-1.52-.38-3.17-.73-4.62-.13-1.98,.83-2.85,3.1-3.52,5.14-2.13,6.52-4.25,13.03-6.36,19.55-1.07,3.29-2.13,6.59-3.2,9.88-.96,2.95-2.32,5.96-2.88,9.01-.18,1-.25,2.03-.14,3.05,.09,.81,.32,1.64,.88,2.23,.51,.52,1.22,.79,1.91,1.02,1.35,.45,2.76,.84,4.18,.81,1.87-.04,3.51-.88,4.49-2.48"/>
      <path class="cls-5" d="M390.08,413.23c-.57-1.94-.42-4.39,1.43-5.56,.79-.5,1.71-.74,2.61-.97,1.51-.38,3.15-.73,4.59-.13,1.97,.83,2.84,3.1,3.5,5.14,2.12,6.52,4.22,13.03,6.33,19.55,1.06,3.29,2.12,6.59,3.19,9.88,.95,2.95,2.31,5.96,2.87,9.01,.18,1,.25,2.03,.14,3.05-.09,.81-.32,1.64-.88,2.23-.5,.52-1.21,.79-1.9,1.02-1.35,.45-2.74,.84-4.16,.81-1.86-.04-3.49-.88-4.46-2.48"/>
      <path class="cls-9" d="M384.19,447.85c.82,4.16,2.02,8.29,4,12.04,1.98,3.75,4.79,7.13,8.4,9.38,2.08,1.3,4.38,2.19,6.52,3.4,2.76,1.57,5.51,4.08,6.17,7.33,.4,2.01-.19,4.13-1.31,5.85s-2.71,3.08-4.41,4.23c-4.79,3.26-10.47,5.03-16.19,5.91-7.86,1.21-16.22-.16-23.89,1.98-4.62,1.29-9.14,3.26-12.74,6.43-3.61,3.17-6.23,7.64-6.48,12.43-.17,3.16,.68,6.28,1.73,9.26,1.03,2.92,2.28,5.8,4.2,8.23s4.57,4.38,7.6,4.98c2.62,.51,5.34,0,7.84-.95,8.4-3.18,10.48-12.56,17.42-17.65,1.46-1.07,3.38-1.96,5.01-1.19,.79,.37,1.38,1.08,1.85,1.82,3.29,5.11,3.7,12.25,3.94,18.13,.1,2.53,.28,5.37,2.17,7.05,.3,.27,.66,.5,1.06,.49,.58-.01,1.02-.52,1.32-1.02,1.59-2.62,1.65-5.86,1.74-8.92,.13-4.1,.42-8.19,.86-12.27,.52-4.75,1.26-9.51,2.93-13.99,.41-1.11,.9-2.21,1.7-3.08s1.98-1.46,3.15-1.3c1.75,.25,2.85,2.01,3.43,3.67,1.16,3.33,1.21,6.93,1.17,10.46-.03,3.09-.08,6.34,1.36,9.07,.34,.64,.82,1.28,1.53,1.43,.83,.18,1.64-.39,2.19-1.04,1.76-2.06,2.11-4.95,2.25-7.66s.19-5.56,1.55-7.9c.31-.53,.75-1.08,1.37-1.14,.45-.05,.88,.17,1.23,.46,1.3,1.07,1.66,2.89,1.83,4.56,.66,6.41-.19,12.89,.15,19.32,.13,2.48,.46,5.02,1.61,7.22,.22,.43,.53,.87,1,.97,.75,.15,1.31-.65,1.63-1.34,1.99-4.32,3.08-9.05,3.2-13.8,.07-2.94-.07-6.29,2.05-8.32,.31-.3,.68-.56,1.11-.61,1.02-.12,1.73,.96,2.18,1.89"/>
      <path class="cls-9" d="M469.11,448.69c-1.08,3.18-2.73,6.24-4.71,8.94-1.73,2.38-3.81,4.54-6.28,6.16-3.08,2.01-6.5,3.12-9.54,5.31-2.24,1.61-4.53,3.28-6.07,5.57-.76,1.13-1.32,2.39-2.07,3.53-.84,1.27-1.9,2.38-3.01,3.42-5.43,5.07-12.17,8.63-19.27,10.83-9.13,2.84-18.86,3.58-28.38,3.11"/>
    </g>
  </g>
</svg>